<?xml version="1.0" encoding="utf-8"?>
<!-- Generator: Adobe Illustrator 25.0.0, SVG Export Plug-In . SVG Version: 6.00 Build 0)  -->
<svg version="1.1" id="Camada_1" xmlns="http://www.w3.org/2000/svg" xmlns:xlink="http://www.w3.org/1999/xlink" x="0px" y="0px"
	 viewBox="0 0 50 50" style="enable-background:new 0 0 50 50;" xml:space="preserve">
<style type="text/css">
	.st0{fill:#211915;}
</style>
<path class="st0" d="M25,2c-4.3,0-8.4,1.2-11.8,3.3C13,5.4,12.6,5.7,12.3,6c3-2.4,10.1,2.4,12.1,3.9c0.3,0.2,0.8,0.2,1.1,0
	c2.1-1.4,9.1-6.3,12.1-3.9c-0.3-0.3-0.7-0.6-0.9-0.7C33.4,3.2,29.3,2,25,2z M11,8C9.4,8,8.2,9.3,8.2,9.3C4.4,13.4,2.1,18.9,2.1,25
	c0,12.7,10.3,23,22.9,23c6.7,0,12.8-2.9,17-7.5c0,0-0.5-3-3.6-7.4c-3.5-5.2-10.5-11.8-12.7-13.8c-0.4-0.3-1-0.3-1.3,0
	c-1.7,1.5-6.1,5.9-7,7c-2.3,2.4-8.7,10-9.1,14.3c0,0-1.4-3.4,1.7-11.2c1.9-4.7,7.9-11.7,10.8-14.7c0.4-0.4,0.4-1,0-1.4
	c-1-0.9-3.2-2.5-5.2-3.7C14.1,8.7,12.5,8.1,11,8z M38.7,8c-0.7,0-4.9,1.3-9.4,5.3c-0.4,0.4-0.4,1,0,1.4c1.6,1.7,6,6,8.7,10.2
	c3.3,5.4,5.3,9.7,4.1,15.6c3.7-4.1,6-9.5,6-15.5c-0.1-6-2.4-11.5-6.2-15.6c-0.1-0.1-0.2-0.2-0.3-0.3C40.8,8.2,39.6,8,38.7,8z"/>
</svg>
