 <svg width="50" height="50" viewBox="0 0 50 50" fill="none" xmlns="http://www.w3.org/2000/svg"> <path d="M40.5287 21.5472L49.1692 12.9102C50.2769 11.8029 50.2769 9.99092 49.1692 8.88356L41.1128 0.830519C40.005 -0.27684 38.1923 -0.27684 37.0847 0.830519L28.4441 9.46745C28.1823 9.72912 28.0212 10.0916 28.0413 10.4741V20.5405C28.0413 21.3459 28.6657 21.9699 29.4713 21.9699H39.5418C39.9044 21.9699 40.2468 21.8291 40.5287 21.5472ZM21.5559 9.46745L12.9153 0.830519C11.8077 -0.27684 9.995 -0.27684 8.88719 0.830519L0.830751 8.88356C-0.276917 9.99092 -0.276917 11.8029 0.830751 12.9102L9.47131 21.5472C9.73308 21.809 10.0956 21.9699 10.4784 21.9498H20.5488C21.3544 21.9498 21.9789 21.3258 21.9789 20.5203V10.454C21.9789 10.0916 21.8378 9.74926 21.5559 9.46745ZM9.47131 28.4326L0.830751 37.0696C-0.276917 38.177 -0.276917 39.9889 0.830751 41.0961L8.88719 49.1493C9.995 50.2567 11.8077 50.2567 12.9153 49.1493L21.5559 40.5124C21.8177 40.2506 21.9789 39.8882 21.9587 39.5057V29.4392C21.9587 28.6339 21.3343 28.0098 20.5287 28.0098H10.4582C10.0956 28.0098 9.75323 28.1508 9.47131 28.4326ZM39.5015 28.0098H29.431C28.6254 28.0098 28.001 28.6339 28.001 29.4392V39.5057C28.001 39.8681 28.142 40.2506 28.4038 40.5124L37.0645 49.1695C38.1722 50.2768 39.9849 50.2768 41.0927 49.1695L49.1491 41.1163C50.2568 40.0091 50.2568 38.197 49.1491 37.0898L40.5085 28.4527C40.2468 28.1507 39.9044 28.0098 39.5015 28.0098Z" fill="#8B46A3"/></svg>