<svg width="1619" height="1752" viewBox="0 0 1619 1752" fill="none" xmlns="http://www.w3.org/2000/svg">
<path d="M1311.98 755.175L1591.58 452.793C1627.43 414.026 1627.43 350.59 1591.58 311.823L1330.88 29.8819C1295.03 -8.88497 1236.37 -8.88498 1200.53 29.8819L920.924 332.264C912.452 341.427 907.237 354.114 907.889 367.506L907.889 719.932C907.889 748.126 928.094 769.977 954.164 769.977L1280.04 769.977C1291.77 769.977 1302.85 765.043 1311.98 755.175ZM698.024 332.264L418.422 29.8819C382.576 -8.88498 323.918 -8.88497 288.071 29.8819L27.3696 311.823C-8.47682 350.59 -8.47686 414.026 27.3696 452.793L306.972 755.175C315.445 764.338 327.176 769.977 339.56 769.272L665.437 769.272C691.507 769.272 711.711 747.422 711.711 719.228L711.711 366.801C711.711 354.114 707.149 342.131 698.024 332.264ZM306.972 996.234L27.3696 1298.62C-8.47686 1337.38 -8.47682 1400.82 27.3696 1439.59L288.071 1721.53C323.918 1760.29 382.576 1760.29 418.422 1721.53L698.025 1419.15C706.497 1409.98 711.711 1397.3 711.059 1383.9L711.06 1031.48C711.06 1003.28 690.855 981.433 664.785 981.433L338.908 981.433C327.176 981.433 316.097 986.366 306.972 996.234ZM1278.74 981.433H952.86C926.79 981.433 906.586 1003.28 906.586 1031.48V1383.9C906.586 1396.59 911.148 1409.98 919.621 1419.15L1199.87 1722.23C1235.72 1761 1294.38 1761 1330.23 1722.23L1590.93 1440.29C1626.77 1401.52 1626.77 1338.09 1590.93 1299.32L1311.32 996.939C1302.85 986.366 1291.77 981.433 1278.74 981.433Z" fill="#8B46A3"/>
</svg>
