<svg width="34" height="34" viewBox="0 0 34 34" fill="none" xmlns="http://www.w3.org/2000/svg">
<path d="M16.9996 23.3992C20.5342 23.3992 23.3996 20.5339 23.3996 16.9992C23.3996 13.4646 20.5342 10.5992 16.9996 10.5992C13.465 10.5992 10.5996 13.4646 10.5996 16.9992C10.5996 20.5339 13.465 23.3992 16.9996 23.3992Z" stroke="#F2F1F4" stroke-width="2" stroke-linecap="round" stroke-linejoin="round"/>
<path d="M23.4 10.599V18.599C23.4 19.872 23.9057 21.0929 24.8059 21.9931C25.7061 22.8933 26.927 23.399 28.2 23.399C29.473 23.399 30.6939 22.8933 31.5941 21.9931C32.4943 21.0929 33 19.872 33 18.599V16.999C32.9998 13.3878 31.778 9.88297 29.5332 7.05425C27.2885 4.22554 24.1529 2.23937 20.6362 1.41868C17.1196 0.597999 13.4287 0.991074 10.1638 2.53399C6.89883 4.07691 4.25185 6.67893 2.65323 9.91696C1.0546 13.155 0.598361 16.8386 1.35868 20.3688C2.11901 23.899 4.05118 27.0682 6.84102 29.361C9.63086 31.6539 13.1143 32.9355 16.7249 32.9976C20.3355 33.0597 23.861 31.8986 26.728 29.703" stroke="#F2F1F4" stroke-width="2" stroke-linecap="round" stroke-linejoin="round"/>
</svg>
