<svg width="28" height="32" viewBox="0 0 28 32" fill="none" xmlns="http://www.w3.org/2000/svg">
<path fill-rule="evenodd" clip-rule="evenodd" d="M11.8597 0.612241L1.97732 6.7481C0.749453 7.51047 0 8.87102 0 10.3377V21.6623C0 23.129 0.749453 24.4895 1.97732 25.2519L11.8597 31.3878C13.1744 32.2041 14.8256 32.2041 16.1403 31.3878L26.0227 25.2519C27.2505 24.4895 28 23.129 28 21.6623V10.3377C28 8.87102 27.2505 7.51047 26.0227 6.7481L16.1403 0.612241C14.8256 -0.20408 13.1744 -0.20408 11.8597 0.612241ZM1.64648 10.3396C1.64648 9.45957 2.09616 8.64324 2.83288 8.18581L12.7152 2.04996C13.5041 1.56017 14.4948 1.56017 15.2836 2.04996L25.166 8.18581C25.9027 8.64324 26.3524 9.45957 26.3524 10.3396V21.6642C26.3524 22.5442 25.9027 23.3605 25.166 23.8179L15.2836 29.9538C14.4948 30.4436 13.5041 30.4436 12.7152 29.9538L2.83288 23.8179C2.09616 23.3605 1.64648 22.5442 1.64648 21.6642V10.3396Z" fill="#F2F1F4"/>
<path d="M13.1763 16.3124L7.06323 13.4C6.65111 13.2036 6.473 12.7035 6.66541 12.283C6.85782 11.8624 7.34788 11.6807 7.76 11.877L13.9985 14.8492L20.2398 11.877C20.652 11.6807 21.142 11.8625 21.3344 12.2831C21.5267 12.7037 21.3485 13.2037 20.9363 13.4L14.8234 16.3111V22.7229C14.8234 23.187 14.4547 23.5633 13.9999 23.5633C13.545 23.5633 13.1763 23.187 13.1763 22.7229V16.3124Z" fill="#F2F1F4"/>
</svg>
