<svg width="50" height="50" viewBox="0 0 50 50" fill="none" xmlns="http://www.w3.org/2000/svg"><path d="M9.37502 39.0625C9.37502 39.0625 17.1875 37.5 18.75 32.8125C18.75 32.8125 6.25002 28.125 9.37502 10.9375C9.37502 10.9375 15.625 18.75 25 20.3125V17.1881C25.0002 15.3931 25.6184 13.6529 26.7506 12.26C27.8829 10.8672 29.4602 9.90661 31.2173 9.53985C32.9744 9.17309 34.8043 9.42249 36.3991 10.2461C37.994 11.0697 39.2567 12.4174 39.9749 14.0624L46.875 14.0625L40.625 20.3125C40.625 31.25 32.8125 42.1875 18.75 42.1875C12.5 42.1875 9.37502 39.0625 9.37502 39.0625Z" stroke="white" stroke-width="2" stroke-linecap="round" stroke-linejoin="round"/></svg>