<svg version="1.2" baseProfile="tiny-ps" xmlns="http://www.w3.org/2000/svg" viewBox="0 0 290 240" width="290" height="240">
	<title>monitor-svg</title>
	<defs>
		<linearGradient id="grd1" gradientUnits="userSpaceOnUse"  x1="118.27" y1="229.799" x2="175.836" y2="230.058">
			<stop offset="0" stop-color="#16191e"  />
			<stop offset="0.164" stop-color="#3a3d43"  />
			<stop offset="0.239" stop-color="#16191e"  />
			<stop offset="0.461" stop-color="#4a4f56"  />
			<stop offset="0.662" stop-color="#16191e"  />
			<stop offset="0.75" stop-color="#36393f"  />
			<stop offset="1" stop-color="#16191e"  />
		</linearGradient>
		<linearGradient id="grd2" gradientUnits="userSpaceOnUse"  x1="45.862" y1="-47.796" x2="244.07" y2="-47.796">
			<stop offset="0" stop-color="#000000"  />
			<stop offset="1" stop-color="#000000" stop-opacity="0" />
		</linearGradient>
		<linearGradient id="grd3" gradientUnits="userSpaceOnUse"  x1="56.502" y1="234.379" x2="58.021" y2="227.731">
			<stop offset="0" stop-color="#53555a"  />
			<stop offset="1" stop-color="#e7e8ec"  />
		</linearGradient>
		<linearGradient id="grd4" gradientUnits="userSpaceOnUse"  x1="143.235" y1="-20.658" x2="65.396" y2="-20.658">
			<stop offset="0" stop-color="#9c9eaa"  />
			<stop offset="0.166" stop-color="#32373b"  />
			<stop offset="0.205" stop-color="#9c9ea9"  />
			<stop offset="0.236" stop-color="#363b3f"  />
			<stop offset="0.741" stop-color="#515257"  />
			<stop offset="1" stop-color="#4a4f53"  />
		</linearGradient>
		<filter x="-50%" y="-50%" width="200%" height="200%" id="flt1"> <feGaussianBlur stdDeviation="0.134" /> </filter>
		<filter x="-50%" y="-50%" width="200%" height="200%" id="flt2"> <feGaussianBlur stdDeviation="0.089" /> </filter>
		<linearGradient id="grd5" gradientUnits="userSpaceOnUse"  x1="233.14" y1="234.379" x2="231.621" y2="227.731">
			<stop offset="0" stop-color="#53555a"  />
			<stop offset="1" stop-color="#e7e8ec"  />
		</linearGradient>
		<linearGradient id="grd6" gradientUnits="userSpaceOnUse"  x1="146.406" y1="-20.658" x2="224.245" y2="-20.658">
			<stop offset="0" stop-color="#9c9eaa"  />
			<stop offset="0.166" stop-color="#32373b"  />
			<stop offset="0.205" stop-color="#868896"  />
			<stop offset="0.236" stop-color="#363b3f"  />
			<stop offset="0.741" stop-color="#515257"  />
			<stop offset="1" stop-color="#4a4f53"  />
		</linearGradient>
		<linearGradient id="grd7" gradientUnits="userSpaceOnUse"  x1="147.612" y1="226.282" x2="147.612" y2="221.871">
			<stop offset="0" stop-color="#b5b7bb"  />
			<stop offset="1" stop-color="#e5e6ea"  />
		</linearGradient>
		<linearGradient id="grd8" gradientUnits="userSpaceOnUse"  x1="-146.556" y1="226.125" x2="-146.556" y2="222.184">
			<stop offset="0" stop-color="#888b95"  />
			<stop offset="1" stop-color="#f0f1f5"  />
		</linearGradient>
		<linearGradient id="grd9" gradientUnits="userSpaceOnUse"  x1="-73.291" y1="222.932" x2="-73.291" y2="226.317">
			<stop offset="0" stop-color="#979aa4"  />
			<stop offset="1" stop-color="#979aa4" stop-opacity="0" />
		</linearGradient>
		<linearGradient id="grd10" gradientUnits="userSpaceOnUse"  x1="130.598" y1="211.004" x2="131.004" y2="181.236">
			<stop offset="0" stop-color="#979aa4"  />
			<stop offset="1" stop-color="#50525a"  />
		</linearGradient>
		<clipPath clipPathUnits="userSpaceOnUse" id="cp1">
			<path d="M127.73 189.21L162.58 189.21C162.73 189.21 162.85 189.33 162.85 189.49L162.85 222.92C162.85 223.07 162.73 223.2 162.58 223.2C150.98 222.54 139.33 222.66 127.73 223.2C127.58 223.2 127.46 223.07 127.46 222.92L127.46 189.49C127.46 189.33 127.58 189.21 127.73 189.21Z" />
		</clipPath>
		<filter x="-50%" y="-50%" width="200%" height="200%" id="flt3"> <feGaussianBlur stdDeviation="0.074" /> </filter>
		<linearGradient id="grd11" gradientUnits="userSpaceOnUse"  x1="-73.291" y1="223.173" x2="-73.291" y2="205.499">
			<stop offset="0" stop-color="#4c5059"  />
			<stop offset="1" stop-color="#818590"  />
		</linearGradient>
		<radialGradient id="grd12" gradientUnits="userSpaceOnUse"  cx="276.801" cy="179.327" r="0.927">
			<stop offset="0" stop-color="#cccccc"  />
			<stop offset="1" stop-color="#c1c1c1" stop-opacity="0" />
		</radialGradient>
		<radialGradient id="grd13" gradientUnits="userSpaceOnUse"  cx="12.865" cy="179.327" r="0.927">
			<stop offset="0" stop-color="#cccccc"  />
			<stop offset="1" stop-color="#c1c1c1" stop-opacity="0" />
		</radialGradient>
		<linearGradient id="grd14" gradientUnits="userSpaceOnUse"  x1="-35.839" y1="185.953" x2="-35.839" y2="4.045">
			<stop offset="0" stop-color="#1d2025"  />
			<stop offset="1" stop-color="#31343b"  />
		</linearGradient>
		<linearGradient id="grd15" gradientUnits="userSpaceOnUse"  x1="-35.839" y1="179.741" x2="-35.839" y2="11.854">
			<stop offset="0" stop-color="#5e6169"  />
			<stop offset="1" stop-color="#1c2125"  />
		</linearGradient>
		<linearGradient id="grd16" gradientUnits="userSpaceOnUse"  x1="5.778" y1="-12.09" x2="139.695" y2="-12.09">
			<stop offset="0" stop-color="#abafb8"  />
			<stop offset="1" stop-color="#bebdc5"  />
		</linearGradient>
		<linearGradient id="grd17" gradientUnits="userSpaceOnUse"  x1="4.209" y1="-12.09" x2="139.695" y2="-12.09">
			<stop offset="0" stop-color="#8f919d"  />
			<stop offset="1" stop-color="#878a95"  />
		</linearGradient>
		<radialGradient id="grd18" gradientUnits="userSpaceOnUse"  cx="144.85" cy="12.97" r="143.038">
			<stop offset="0" stop-color="#5e6169"  />
			<stop offset="1" stop-color="#1c2125"  />
		</radialGradient>
		<linearGradient id="grd19" gradientUnits="userSpaceOnUse"  x1="-35.839" y1="189.624" x2="-35.839" y2="188.721">
			<stop offset="0" stop-color="#575a62"  />
			<stop offset="1" stop-color="#878a95" stop-opacity="0" />
		</linearGradient>
		<linearGradient id="grd20" gradientUnits="userSpaceOnUse"  x1="-35.839" y1="189.563" x2="-35.839" y2="188.21">
			<stop offset="0" stop-color="#6b6f7a" stop-opacity="0" />
			<stop offset="1" stop-color="#ebebed"  />
		</linearGradient>
	</defs>
	<style>
		tspan { white-space:pre }
		.shp0 { fill: url(#grd1);stroke: url(#grd2);stroke-width: 0.15 } 
		.shp1 { fill: url(#grd3) } 
		.shp2 { fill: url(#grd4) } 
		.shp3 { filter: url(#flt1);fill: none;stroke: #ffffff;stroke-width: 0.15 } 
		.shp4 { filter: url(#flt2);fill: none;stroke: #ffffff;stroke-width: 0.18 } 
		.shp5 { fill: url(#grd5) } 
		.shp6 { fill: url(#grd6) } 
		.shp7 { fill: url(#grd7);stroke: url(#grd8);stroke-width: 0.15 } 
		.shp8 { fill: url(#grd9) } 
		.shp9 { fill: url(#grd10) } 
		.shp10 { filter: url(#flt3);fill: none;stroke: url(#grd11);stroke-width: 0.6 } 
		.shp11 { fill: url(#grd12) } 
		.shp12 { fill: url(#grd13) } 
		.shp13 { fill: url(#grd14) } 
		.shp14 { fill: url(#grd15) } 
		.shp15 { fill: url(#grd16) } 
		.shp16 { fill: url(#grd17) } 
		.shp17 { fill: url(#grd18) } 
		.shp18 { fill: url(#grd19) } 
		.shp19 { opacity: 0.655;fill: url(#grd20) } 
	</style>
	<path id="Layer" fill-rule="evenodd" class="shp0" d="M244 231.94L224.18 236.43L222.36 236.43L164.99 230.65C163.18 230.61 161.28 230.46 159.44 230.67C151.91 231.53 138.57 231.6 130.34 230.6L124.59 230.65L65.95 236.38L64.31 236.38L45.93 232.18L48.84 228.72C50.11 227.2 51.95 226.71 54.44 226.49L122.1 220.48C123.25 220.38 124.3 219.82 125.22 219.04L167.58 219.04C168.54 219.89 169.73 220.5 171.33 220.64L234.02 226.2C237.37 226.49 239.82 226.75 241.67 229.04L244 231.94L244 231.94Z" />
	<g id="Layer">
		<path id="Layer" fill-rule="evenodd" class="shp1" d="M45.66 231.63L47.99 228.73C49.83 226.44 52.29 226.18 55.64 225.88L118.32 220.33C119.93 220.18 121.11 219.58 122.07 218.73L145.05 218.73L145.04 228.03C140.21 228 133.66 227.74 130.22 227.35C128.37 227.14 126.47 227.16 124.66 227.33L75.62 231.82C71.9 232.16 69.28 232.96 67.3 236.42L65.48 236.42L45.66 231.63L45.66 231.63Z" />
		<path id="Layer" fill-rule="evenodd" class="shp2" d="M65.44 236.44L66.98 233.99C68.56 231.5 71.36 230.24 74.71 229.95L124.45 225.57C126.38 225.41 129.08 225.85 131.49 225.93L145.02 226.4L145.02 228.33C140.61 228.23 133.64 228.04 130.2 227.65C128.36 227.44 126.45 227.46 124.64 227.63L75.6 232.12C71.88 232.46 69.34 232.96 67.36 236.43L65.44 236.44L65.44 236.44Z" />
		<path id="Layer" class="shp3" d="M65.45 236.45L66.99 234C68.56 231.51 71.36 230.24 74.72 229.95L124.45 225.58C126.38 225.41 129.09 225.85 131.5 225.93L144.73 226.41" />
		<path id="Layer" class="shp4" d="M65.18 236.45L66.72 234C68.29 231.51 71.1 230.24 74.45 229.95L124.19 225.58C126.11 225.41 128.82 225.85 131.23 225.93L145.06 226.41" />
	</g>
	<g id="Layer">
		<path id="Layer" fill-rule="evenodd" class="shp5" d="M243.98 231.63L224.16 236.42L222.35 236.42C220.36 232.96 217.75 232.16 214.03 231.82L164.98 227.33C163.18 227.16 161.27 227.14 159.43 227.35C155.98 227.74 149.44 228 144.61 228.03L144.6 218.73L167.57 218.73C168.53 219.58 169.71 220.18 171.32 220.33L234 225.88C237.36 226.18 239.81 226.44 241.65 228.73L243.98 231.63L243.98 231.63Z" />
		<path id="Layer" fill-rule="evenodd" class="shp6" d="M224.2 236.44L222.28 236.43C220.3 232.96 217.76 232.46 214.04 232.12L165 227.63C163.19 227.46 161.28 227.44 159.44 227.65C156 228.04 149.03 228.23 144.62 228.33L144.62 226.4L158.15 225.93C160.56 225.85 163.27 225.41 165.2 225.57L214.93 229.95C218.29 230.24 221.09 231.5 222.66 233.99L224.2 236.44L224.2 236.44Z" />
		<path id="Layer" class="shp3" d="M144.91 226.41L158.14 225.93C160.55 225.85 163.26 225.41 165.19 225.58L214.92 229.95C218.28 230.24 221.08 231.51 222.65 234L224.19 236.45" />
		<path id="Layer" class="shp4" d="M144.58 226.41L158.41 225.93C160.82 225.85 163.53 225.41 165.46 225.58L215.19 229.95C218.55 230.24 221.35 231.51 222.92 234L224.46 236.45" />
	</g>
	<path id="Layer" class="shp7" d="M165.01 223.07C165.01 224.42 156.31 225.51 145.58 225.51C134.84 225.51 126.14 224.42 126.14 223.07C126.14 221.73 134.84 220.63 145.58 220.63C156.31 220.63 165.01 221.73 165.01 223.07Z" />
	<path id="Layer" class="shp8" d="M127.73 222.33L162.58 222.33C162.73 222.33 162.85 222.45 162.85 222.61L162.85 228.87C162.85 229.02 127.46 226.16 127.46 228.87L127.46 222.61C127.46 222.45 127.58 222.33 127.73 222.33L127.73 222.33Z" />
	<path id="Layer" class="shp9" d="M127.73 189.21L162.58 189.21C162.73 189.21 162.85 189.33 162.85 189.49L162.85 222.92C162.85 223.07 162.73 223.2 162.58 223.2C150.98 222.54 139.33 222.66 127.73 223.2C127.58 223.2 127.46 223.07 127.46 222.92L127.46 189.49C127.46 189.33 127.58 189.21 127.73 189.21Z" />
	<g id="Clip-Path" clip-path="url(#cp1)">
		<path id="Layer" class="shp10" d="M127.73 189.21L162.58 189.21C162.73 189.21 162.85 189.33 162.85 189.49L162.85 223.22C162.85 223.37 162.73 223.5 162.58 223.5C150.82 222.87 139.2 222.85 127.73 223.5C127.58 223.5 127.46 223.37 127.46 223.22L127.46 189.49C127.46 189.33 127.58 189.21 127.73 189.21Z" />
	</g>
	<path id="g" class="shp11" d="M277.46 178.67C277.63 178.85 277.77 179.04 277.87 179.23C277.85 179.92 277.64 180.29 276.51 180.29C276.38 180.21 276.26 180.11 276.15 179.99C275.24 178.79 277.06 179.87 276.81 178.21C277.03 178.31 277.25 178.47 277.46 178.67Z" />
	<path id="g" class="shp12" d="M12.85 178.21C12.61 179.87 14.43 178.79 13.52 179.99C13.41 180.11 13.28 180.21 13.16 180.29C12.03 180.29 11.82 179.92 11.79 179.23C11.89 179.04 12.03 178.85 12.21 178.67C12.41 178.47 12.63 178.31 12.85 178.21Z" />
	<path id="Layer" class="shp13" d="M4.2 4.16L285.51 4.16C285.61 4.16 285.72 4.18 285.81 4.22C285.91 4.26 286 4.32 286.07 4.4C286.15 4.47 286.21 4.56 286.25 4.66C286.29 4.75 286.31 4.86 286.31 4.97L286.31 187.32C286.31 187.43 286.29 187.53 286.25 187.63C286.21 187.72 286.15 187.81 286.07 187.89C286 187.96 285.91 188.02 285.81 188.06C285.72 188.1 285.61 188.12 285.51 188.12L4.2 188.12C4.09 188.12 3.99 188.1 3.89 188.06C3.79 188.02 3.71 187.96 3.63 187.89C3.56 187.81 3.5 187.72 3.46 187.63C3.42 187.53 3.4 187.43 3.4 187.32L3.4 4.97C3.4 4.86 3.42 4.75 3.46 4.66C3.5 4.56 3.56 4.47 3.63 4.4C3.71 4.32 3.79 4.26 3.89 4.22C3.99 4.18 4.09 4.16 4.2 4.16" />
	<path id="Layer" class="shp14" d="M12.71 12.04L276.99 12.04C277.1 12.04 277.2 12.06 277.3 12.1C277.39 12.14 277.48 12.2 277.56 12.27C277.63 12.35 277.69 12.44 277.73 12.53C277.77 12.63 277.79 12.74 277.79 12.84L277.79 179.45C277.79 179.55 277.77 179.66 277.73 179.75C277.69 179.85 277.63 179.94 277.56 180.02C277.48 180.09 277.39 180.15 277.3 180.19C277.2 180.23 277.1 180.25 276.99 180.25L12.71 180.25C12.61 180.25 12.5 180.23 12.41 180.19C12.31 180.15 12.22 180.09 12.15 180.02C12.07 179.94 12.02 179.85 11.98 179.75C11.94 179.66 11.91 179.55 11.91 179.45L11.91 12.84C11.91 12.74 11.94 12.63 11.98 12.53C12.02 12.44 12.07 12.35 12.15 12.27C12.22 12.2 12.31 12.14 12.41 12.1C12.5 12.06 12.61 12.04 12.71 12.04" />
	<path id="Layer" class="shp15" d="M3.9 2.81L285.81 2.81C285.84 2.81 285.88 2.81 285.91 2.83C285.95 2.84 285.98 2.86 286 2.89C286.03 2.91 286.05 2.95 286.06 2.98C286.08 3.01 286.08 3.05 286.08 3.08L286.08 3.88C286.08 3.92 286.08 3.96 286.06 3.99C286.05 4.02 286.03 4.05 286 4.08C285.98 4.11 285.95 4.13 285.91 4.14C285.88 4.15 285.84 4.16 285.81 4.16L3.9 4.16C3.86 4.16 3.83 4.15 3.79 4.14C3.76 4.13 3.73 4.11 3.7 4.08C3.68 4.05 3.66 4.02 3.64 3.99C3.63 3.96 3.62 3.92 3.62 3.88L3.62 3.08C3.62 3.05 3.63 3.01 3.64 2.98C3.66 2.95 3.68 2.91 3.7 2.89C3.73 2.86 3.76 2.84 3.79 2.83C3.83 2.81 3.86 2.81 3.9 2.81" />
	<path id="Layer" class="shp16" d="M3.9 188.21L285.81 188.21C285.84 188.21 285.88 188.22 285.91 188.23C285.95 188.24 285.98 188.27 286 188.29C286.03 188.32 286.05 188.35 286.06 188.38C286.08 188.41 286.08 188.45 286.08 188.49L286.08 189.29C286.08 189.32 286.08 189.36 286.06 189.39C286.05 189.43 286.03 189.46 286 189.48C285.98 189.51 285.95 189.53 285.91 189.54C285.88 189.56 285.84 189.56 285.81 189.56L3.9 189.56C3.86 189.56 3.83 189.56 3.79 189.54C3.76 189.53 3.73 189.51 3.7 189.48C3.68 189.46 3.66 189.43 3.64 189.39C3.63 189.36 3.62 189.32 3.62 189.29L3.62 188.49C3.62 188.45 3.63 188.41 3.64 188.38C3.66 188.35 3.68 188.32 3.7 188.29C3.73 188.27 3.76 188.24 3.79 188.23C3.83 188.22 3.86 188.21 3.9 188.21" />
	<path id="Layer" class="shp17" d="M13.72 12.97L275.99 12.97C276.1 12.97 276.2 12.99 276.3 13.03C276.4 13.07 276.48 13.13 276.56 13.21C276.63 13.28 276.69 13.37 276.73 13.47C276.77 13.57 276.79 13.67 276.79 13.78L276.79 178.52C276.79 178.62 276.77 178.73 276.73 178.82C276.69 178.92 276.63 179.01 276.56 179.09C276.48 179.16 276.4 179.22 276.3 179.26C276.2 179.3 276.1 179.32 275.99 179.32L13.72 179.32C13.61 179.32 13.51 179.3 13.41 179.26C13.31 179.22 13.23 179.16 13.15 179.09C13.08 179.01 13.02 178.92 12.98 178.82C12.94 178.73 12.92 178.62 12.92 178.52L12.92 13.78C12.92 13.67 12.94 13.57 12.98 13.47C13.02 13.37 13.08 13.28 13.15 13.21C13.23 13.13 13.31 13.07 13.41 13.03C13.51 12.99 13.61 12.97 13.72 12.97" />
	<path id="Layer" class="shp18" d="M3.9 188.21L285.81 188.21C285.84 188.21 285.88 188.22 285.91 188.23C285.95 188.24 285.98 188.27 286 188.29C286.03 188.32 286.05 188.35 286.06 188.38C286.08 188.41 286.08 188.45 286.08 188.49L286.08 189.29C286.08 189.32 286.08 189.36 286.06 189.39C286.05 189.43 286.03 189.46 286 189.48C285.98 189.51 285.95 189.53 285.91 189.54C285.88 189.56 285.84 189.56 285.81 189.56L3.9 189.56C3.86 189.56 3.83 189.56 3.79 189.54C3.76 189.53 3.73 189.51 3.7 189.48C3.68 189.46 3.66 189.43 3.64 189.39C3.63 189.36 3.62 189.32 3.62 189.29L3.62 188.49C3.62 188.45 3.63 188.41 3.64 188.38C3.66 188.35 3.68 188.32 3.7 188.29C3.73 188.27 3.76 188.24 3.79 188.23C3.83 188.22 3.86 188.21 3.9 188.21" />
	<path id="Layer" class="shp19" d="M3.9 188.21L285.81 188.21C285.84 188.21 285.88 188.22 285.91 188.23C285.95 188.24 285.98 188.27 286 188.29C286.03 188.32 286.05 188.35 286.06 188.38C286.08 188.41 286.08 188.45 286.08 188.49L286.08 189.29C286.08 189.32 286.08 189.36 286.06 189.39C286.05 189.43 286.03 189.46 286 189.48C285.98 189.51 285.95 189.53 285.91 189.54C285.88 189.56 285.84 189.56 285.81 189.56L3.9 189.56C3.86 189.56 3.83 189.56 3.79 189.54C3.76 189.53 3.73 189.51 3.7 189.48C3.68 189.46 3.66 189.43 3.64 189.39C3.63 189.36 3.62 189.32 3.62 189.29L3.62 188.49C3.62 188.45 3.63 188.41 3.64 188.38C3.66 188.35 3.68 188.32 3.7 188.29C3.73 188.27 3.76 188.24 3.79 188.23C3.83 188.22 3.86 188.21 3.9 188.21" />
</svg>