<svg width="307" height="94" viewBox="0 0 307 94" fill="none" xmlns="http://www.w3.org/2000/svg"><path d="M81.1674 71.6726L87.386 64.9473C88.1833 64.0851 88.1833 62.6742 87.386 61.812L81.5878 55.5413C80.7905 54.6791 79.4859 54.6791 78.6886 55.5413L72.47 62.2666C72.2815 62.4704 72.1656 62.7526 72.1801 63.0505L72.1801 70.8888C72.1801 71.5159 72.6294 72.0018 73.2093 72.0018L80.4571 72.0018C80.718 72.0018 80.9645 71.8921 81.1674 71.6726V71.6726ZM67.5124 62.2666L61.2938 55.5413C60.4965 54.6791 59.1919 54.6791 58.3947 55.5413L52.5964 61.812C51.7991 62.6742 51.7991 64.0851 52.5964 64.9473L58.815 71.6726C59.0035 71.8764 59.2644 72.0018 59.5398 71.9862L66.7877 71.9862C67.3675 71.9862 67.8169 71.5002 67.8169 70.8731L67.8169 63.0348C67.8169 62.7526 67.7154 62.4861 67.5124 62.2666ZM58.815 77.034L52.5964 83.7593C51.7991 84.6215 51.7991 86.0324 52.5964 86.8947L58.3947 93.1653C59.1919 94.0275 60.4965 94.0275 61.2938 93.1653L67.5124 86.44C67.7009 86.2362 67.8169 85.9541 67.8024 85.6562L67.8024 77.8179C67.8024 77.1908 67.353 76.7048 66.7732 76.7048L59.5253 76.7048C59.2644 76.7048 59.018 76.8146 58.815 77.034ZM80.4281 76.7048H73.1803C72.6004 76.7048 72.1511 77.1908 72.1511 77.8179L72.1511 85.6562C72.1511 85.9384 72.2525 86.2362 72.441 86.44L78.6741 93.181C79.4714 94.0432 80.776 94.0432 81.5733 93.181L87.3716 86.9103C88.1688 86.0481 88.1688 84.6372 87.3716 83.775L81.1529 77.0497C80.9645 76.8146 80.718 76.7048 80.4281 76.7048V76.7048Z" fill="#8B46A3"/><path d="M47 83.76V90H20.984V56.4H46.376V62.64H28.712V69.936H44.312V75.984H28.712V83.76H47ZM108.512 56.4C111.488 56.4 114.064 56.896 116.24 57.888C118.448 58.88 120.144 60.288 121.328 62.112C122.512 63.936 123.104 66.096 123.104 68.592C123.104 71.056 122.512 73.216 121.328 75.072C120.144 76.896 118.448 78.304 116.24 79.296C114.064 80.256 111.488 80.736 108.512 80.736H101.744V90H93.9684V56.4H108.512ZM108.08 74.4C110.416 74.4 112.192 73.904 113.408 72.912C114.624 71.888 115.232 70.448 115.232 68.592C115.232 66.704 114.624 65.264 113.408 64.272C112.192 63.248 110.416 62.736 108.08 62.736H101.744V74.4H108.08ZM154.672 83.76V90H128.656V56.4H154.048V62.64H136.384V69.936H151.984V75.984H136.384V83.76H154.672ZM191.675 56.4V90H185.291L168.539 69.6V90H160.859V56.4H167.291L183.995 76.8V56.4H191.675ZM210.665 90.576C208.009 90.576 205.433 90.224 202.937 89.52C200.473 88.784 198.489 87.84 196.985 86.688L199.625 80.832C201.065 81.888 202.777 82.736 204.761 83.376C206.745 84.016 208.729 84.336 210.713 84.336C212.921 84.336 214.553 84.016 215.609 83.376C216.665 82.704 217.193 81.824 217.193 80.736C217.193 79.936 216.873 79.28 216.233 78.768C215.625 78.224 214.825 77.792 213.833 77.472C212.873 77.152 211.561 76.8 209.897 76.416C207.337 75.808 205.241 75.2 203.609 74.592C201.977 73.984 200.569 73.008 199.385 71.664C198.233 70.32 197.657 68.528 197.657 66.288C197.657 64.336 198.185 62.576 199.241 61.008C200.297 59.408 201.881 58.144 203.993 57.216C206.137 56.288 208.745 55.824 211.817 55.824C213.961 55.824 216.057 56.08 218.105 56.592C220.153 57.104 221.945 57.84 223.481 58.8L221.081 64.704C217.977 62.944 214.873 62.064 211.769 62.064C209.593 62.064 207.977 62.416 206.921 63.12C205.897 63.824 205.385 64.752 205.385 65.904C205.385 67.056 205.977 67.92 207.161 68.496C208.377 69.04 210.217 69.584 212.681 70.128C215.241 70.736 217.337 71.344 218.969 71.952C220.601 72.56 221.993 73.52 223.145 74.832C224.329 76.144 224.921 77.92 224.921 80.16C224.921 82.08 224.377 83.84 223.289 85.44C222.233 87.008 220.633 88.256 218.489 89.184C216.345 90.112 213.737 90.576 210.665 90.576ZM230.234 56.4H238.01V90H230.234V56.4ZM278.101 56.4L263.557 90H255.877L241.38 56.4H249.781L260.005 80.4L270.373 56.4H278.101ZM306.922 83.76V90H280.906V56.4H306.298V62.64H288.634V69.936H304.234V75.984H288.634V83.76H306.922Z" fill="white"/><path d="M38.955 49.105L3.4 9.065L3.465 48H0.345V0.874998H0.54L36.095 41.24L36.03 1.85H39.085V49.105H38.955ZM53.7923 1.85H82.2623V4.905H56.9773V23.235H79.7273V26.29H56.9773V44.945H83.1723V48H53.7923V1.85ZM92.3809 24.99C92.3809 21.74 92.9876 18.7067 94.2009 15.89C95.4143 13.03 97.1043 10.5167 99.2709 8.35C101.438 6.14 103.929 4.42833 106.746 3.215C109.606 1.95833 112.661 1.33 115.911 1.33C119.161 1.33 122.216 1.95833 125.076 3.215C127.936 4.42833 130.449 6.14 132.616 8.35C134.783 10.5167 136.473 13.03 137.686 15.89C138.943 18.7067 139.571 21.74 139.571 24.99C139.571 28.24 138.943 31.295 137.686 34.155C136.473 36.9717 134.783 39.4633 132.616 41.63C130.449 43.7967 127.936 45.4867 125.076 46.7C122.216 47.9133 119.161 48.52 115.911 48.52C112.661 48.52 109.606 47.935 106.746 46.765C103.929 45.595 101.438 43.9483 99.2709 41.825C97.1043 39.7017 95.4143 37.21 94.2009 34.35C92.9876 31.49 92.3809 28.37 92.3809 24.99ZM95.6309 25.055C95.6309 27.8717 96.1509 30.515 97.1909 32.985C98.2309 35.455 99.6826 37.6217 101.546 39.485C103.409 41.3483 105.554 42.8217 107.981 43.905C110.451 44.945 113.073 45.465 115.846 45.465C118.706 45.465 121.371 44.945 123.841 43.905C126.311 42.8217 128.478 41.3483 130.341 39.485C132.204 37.6217 133.656 35.455 134.696 32.985C135.779 30.515 136.321 27.85 136.321 24.99C136.321 22.1733 135.779 19.53 134.696 17.06C133.656 14.5467 132.204 12.3583 130.341 10.495C128.478 8.58833 126.311 7.09333 123.841 6.01C121.371 4.92667 118.728 4.385 115.911 4.385C113.051 4.385 110.386 4.94833 107.916 6.075C105.446 7.15833 103.279 8.65333 101.416 10.56C99.5959 12.4667 98.1659 14.6767 97.1259 17.19C96.1293 19.66 95.6309 22.2817 95.6309 25.055Z" fill="white"/></svg>