<svg width="326" height="107" viewBox="0 0 326 107" fill="white" xmlns="http://www.w3.org/2000/svg"><path d="M88.1674 72.6726L94.386 65.9473C95.1833 65.0851 95.1833 63.6742 94.386 62.812L88.5878 56.5413C87.7905 55.6791 86.4859 55.6791 85.6886 56.5413L79.47 63.2666C79.2815 63.4704 79.1656 63.7526 79.1801 64.0505L79.1801 71.8888C79.1801 72.5159 79.6294 73.0018 80.2093 73.0018H87.4571C87.718 73.0018 87.9645 72.8921 88.1674 72.6726ZM74.5124 63.2666L68.2938 56.5413C67.4965 55.6791 66.1919 55.6791 65.3947 56.5413L59.5964 62.812C58.7991 63.6742 58.7991 65.0851 59.5964 65.9473L65.815 72.6726C66.0035 72.8764 66.2644 73.0018 66.5398 72.9862H73.7877C74.3675 72.9862 74.8169 72.5002 74.8169 71.8731V64.0348C74.8169 63.7526 74.7154 63.4861 74.5124 63.2666ZM65.815 78.034L59.5964 84.7593C58.7991 85.6215 58.7991 87.0324 59.5964 87.8947L65.3947 94.1653C66.1919 95.0275 67.4965 95.0275 68.2938 94.1653L74.5124 87.44C74.7009 87.2362 74.8169 86.9541 74.8024 86.6562L74.8024 78.8179C74.8024 78.1908 74.353 77.7048 73.7732 77.7048L66.5253 77.7048C66.2644 77.7048 66.018 77.8146 65.815 78.034ZM87.4281 77.7048L80.1803 77.7048C79.6004 77.7048 79.1511 78.1908 79.1511 78.8179V86.6562C79.1511 86.9384 79.2525 87.2362 79.441 87.44L85.6741 94.181C86.4714 95.0432 87.776 95.0432 88.5733 94.181L94.3716 87.9103C95.1688 87.0481 95.1688 85.6372 94.3716 84.775L88.1529 78.0497C87.9645 77.8146 87.718 77.7048 87.4281 77.7048Z" fill="#8B46A3"/><path d="M54 84.76V91H27.984V57.4H53.376V63.64H35.712V70.936H51.312V76.984H35.712V84.76H54ZM115.512 57.4C118.488 57.4 121.064 57.896 123.24 58.888C125.448 59.88 127.144 61.288 128.328 63.112C129.512 64.936 130.104 67.096 130.104 69.592C130.104 72.056 129.512 74.216 128.328 76.072C127.144 77.896 125.448 79.304 123.24 80.296C121.064 81.256 118.488 81.736 115.512 81.736H108.744V91H100.968V57.4H115.512ZM115.08 75.4C117.416 75.4 119.192 74.904 120.408 73.912C121.624 72.888 122.232 71.448 122.232 69.592C122.232 67.704 121.624 66.264 120.408 65.272C119.192 64.248 117.416 63.736 115.08 63.736H108.744V75.4H115.08ZM161.672 84.76V91H135.656V57.4H161.048V63.64H143.384V70.936H158.984V76.984H143.384V84.76H161.672ZM198.675 57.4V91H192.291L175.539 70.6V91H167.859V57.4H174.291L190.995 77.8V57.4H198.675ZM217.665 91.576C215.009 91.576 212.433 91.224 209.937 90.52C207.473 89.784 205.489 88.84 203.985 87.688L206.625 81.832C208.065 82.888 209.777 83.736 211.761 84.376C213.745 85.016 215.729 85.336 217.713 85.336C219.921 85.336 221.553 85.016 222.609 84.376C223.665 83.704 224.193 82.824 224.193 81.736C224.193 80.936 223.873 80.28 223.233 79.768C222.625 79.224 221.825 78.792 220.833 78.472C219.873 78.152 218.561 77.8 216.897 77.416C214.337 76.808 212.241 76.2 210.609 75.592C208.977 74.984 207.569 74.008 206.385 72.664C205.233 71.32 204.657 69.528 204.657 67.288C204.657 65.336 205.185 63.576 206.241 62.008C207.297 60.408 208.881 59.144 210.993 58.216C213.137 57.288 215.745 56.824 218.817 56.824C220.961 56.824 223.057 57.08 225.105 57.592C227.153 58.104 228.945 58.84 230.481 59.8L228.081 65.704C224.977 63.944 221.873 63.064 218.769 63.064C216.593 63.064 214.977 63.416 213.921 64.12C212.897 64.824 212.385 65.752 212.385 66.904C212.385 68.056 212.977 68.92 214.161 69.496C215.377 70.04 217.217 70.584 219.681 71.128C222.241 71.736 224.337 72.344 225.969 72.952C227.601 73.56 228.993 74.52 230.145 75.832C231.329 77.144 231.921 78.92 231.921 81.16C231.921 83.08 231.377 84.84 230.289 86.44C229.233 88.008 227.633 89.256 225.489 90.184C223.345 91.112 220.737 91.576 217.665 91.576ZM237.234 57.4H245.01V91H237.234V57.4ZM285.101 57.4L270.557 91H262.877L248.38 57.4H256.781L267.005 81.4L277.373 57.4H285.101ZM313.922 84.76V91H287.906V57.4H313.298V63.64H295.634V70.936H311.234V76.984H295.634V84.76H313.922Z" fill="white"/><path d="M45.955 50.105L10.4 10.065L10.465 49H7.345V1.875H7.54L43.095 42.24L43.03 2.85H46.085V50.105H45.955ZM60.7923 2.85H89.2623V5.905H63.9773V24.235H86.7273V27.29H63.9773V45.945H90.1723V49H60.7923V2.85ZM99.3809 25.99C99.3809 22.74 99.9876 19.7067 101.201 16.89C102.414 14.03 104.104 11.5167 106.271 9.35C108.438 7.14 110.929 5.42833 113.746 4.215C116.606 2.95833 119.661 2.33 122.911 2.33C126.161 2.33 129.216 2.95833 132.076 4.215C134.936 5.42833 137.449 7.14 139.616 9.35C141.783 11.5167 143.473 14.03 144.686 16.89C145.943 19.7067 146.571 22.74 146.571 25.99C146.571 29.24 145.943 32.295 144.686 35.155C143.473 37.9717 141.783 40.4633 139.616 42.63C137.449 44.7967 134.936 46.4867 132.076 47.7C129.216 48.9133 126.161 49.52 122.911 49.52C119.661 49.52 116.606 48.935 113.746 47.765C110.929 46.595 108.438 44.9483 106.271 42.825C104.104 40.7017 102.414 38.21 101.201 35.35C99.9876 32.49 99.3809 29.37 99.3809 25.99ZM102.631 26.055C102.631 28.8717 103.151 31.515 104.191 33.985C105.231 36.455 106.683 38.6217 108.546 40.485C110.409 42.3483 112.554 43.8217 114.981 44.905C117.451 45.945 120.073 46.465 122.846 46.465C125.706 46.465 128.371 45.945 130.841 44.905C133.311 43.8217 135.478 42.3483 137.341 40.485C139.204 38.6217 140.656 36.455 141.696 33.985C142.779 31.515 143.321 28.85 143.321 25.99C143.321 23.1733 142.779 20.53 141.696 18.06C140.656 15.5467 139.204 13.3583 137.341 11.495C135.478 9.58833 133.311 8.09333 130.841 7.01C128.371 5.92667 125.728 5.385 122.911 5.385C120.051 5.385 117.386 5.94833 114.916 7.075C112.446 8.15833 110.279 9.65333 108.416 11.56C106.596 13.4667 105.166 15.6767 104.126 18.19C103.129 20.66 102.631 23.2817 102.631 26.055Z" fill="white"/></svg>