<svg width="50" height="50" viewBox="0 0 50 50" fill="none" xmlns="http://www.w3.org/2000/svg"><path d="M25 32.8125C29.3147 32.8125 32.8125 29.3147 32.8125 25C32.8125 20.6853 29.3147 17.1875 25 17.1875C20.6853 17.1875 17.1875 20.6853 17.1875 25C17.1875 29.3147 20.6853 32.8125 25 32.8125Z" stroke="white" stroke-width="2" stroke-miterlimit="10"/><path d="M33.5938 7.03125H16.4062C11.2286 7.03125 7.03125 11.2286 7.03125 16.4062V33.5938C7.03125 38.7714 11.2286 42.9688 16.4062 42.9688H33.5938C38.7714 42.9688 42.9688 38.7714 42.9688 33.5938V16.4062C42.9688 11.2286 38.7714 7.03125 33.5938 7.03125Z" stroke="white" stroke-width="2" stroke-linecap="round" stroke-linejoin="round"/><path d="M35.1562 17.1875C36.4507 17.1875 37.5 16.1382 37.5 14.8437C37.5 13.5493 36.4507 12.5 35.1562 12.5C33.8618 12.5 32.8125 13.5493 32.8125 14.8437C32.8125 16.1382 33.8618 17.1875 35.1562 17.1875Z" fill="white"/></svg>