<svg width="50" height="50" viewBox="0 0 50 50" fill="none" xmlns="http://www.w3.org/2000/svg">
<path d="M25 31.25C29.3147 31.25 32.8125 27.7522 32.8125 23.4375C32.8125 19.1228 29.3147 15.625 25 15.625C20.6853 15.625 17.1875 19.1228 17.1875 23.4375C17.1875 27.7522 20.6853 31.25 25 31.25Z" stroke="white" stroke-width="2" stroke-miterlimit="10"/>
<path d="M12.4607 38.9402C13.6377 36.6262 15.432 34.683 17.6451 33.3257C19.8582 31.9684 22.4038 31.25 24.9999 31.25C27.5961 31.25 30.1416 31.9684 32.3547 33.3257C34.5678 34.6829 36.3622 36.6262 37.5392 38.9402" stroke="white" stroke-width="2" stroke-linecap="round" stroke-linejoin="round"/>
<path d="M34.375 10.9375H43.75" stroke="white" stroke-width="2" stroke-linecap="round" stroke-linejoin="round"/>
<path d="M39.0625 6.25V15.625" stroke="white" stroke-width="2" stroke-linecap="round" stroke-linejoin="round"/>
<path d="M43.518 22.0426C44.1387 25.9499 43.5062 29.9534 41.7112 33.4791C39.9163 37.0049 37.0511 39.8717 33.5264 41.6686C30.0016 43.4655 25.9985 44.1003 22.0908 43.4818C18.1831 42.8633 14.5716 41.0234 11.774 38.2259C8.9765 35.4283 7.1366 31.8168 6.51814 27.9091C5.89968 24.0014 6.53441 19.9983 8.33134 16.4736C10.1283 12.9489 12.9951 10.0836 16.5208 8.2887C20.0466 6.49376 24.0501 5.86129 27.9574 6.48195" stroke="white" stroke-width="2" stroke-linecap="round" stroke-linejoin="round"/>
</svg>
