<svg width="37" height="40" viewBox="0 0 37 40" fill="none" xmlns="http://www.w3.org/2000/svg"><path d="M30.1674 17.6726L36.386 10.9473C37.1833 10.0851 37.1833 8.67421 36.386 7.812L30.5878 1.54133C29.7905 0.679114 28.4859 0.679114 27.6886 1.54133L21.47 8.26662C21.2815 8.47042 21.1656 8.75259 21.1801 9.05045L21.1801 16.8888C21.1801 17.5159 21.6294 18.0018 22.2093 18.0018H29.4571C29.718 18.0018 29.9645 17.8921 30.1674 17.6726ZM16.5124 8.26662L10.2938 1.54133C9.49653 0.679114 8.19192 0.679114 7.39465 1.54133L1.59637 7.812C0.79911 8.67421 0.79911 10.0851 1.59637 10.9473L7.81503 17.6726C8.00347 17.8764 8.26439 18.0018 8.53981 17.9862H15.7877C16.3675 17.9862 16.8169 17.5002 16.8169 16.8731V9.03478C16.8169 8.7526 16.7154 8.48609 16.5124 8.26662ZM7.81503 23.034L1.59637 29.7593C0.79911 30.6215 0.799111 32.0324 1.59637 32.8947L7.39465 39.1653C8.19192 40.0275 9.49653 40.0275 10.2938 39.1653L16.5124 32.44C16.7009 32.2362 16.8169 31.9541 16.8024 31.6562L16.8024 23.8179C16.8024 23.1908 16.353 22.7048 15.7732 22.7048L8.52532 22.7048C8.26439 22.7048 8.01797 22.8146 7.81503 23.034ZM29.4281 22.7048L22.1803 22.7048C21.6004 22.7048 21.1511 23.1908 21.1511 23.8179V31.6562C21.1511 31.9384 21.2525 32.2362 21.441 32.44L27.6741 39.181C28.4714 40.0432 29.776 40.0432 30.5733 39.181L36.3716 32.9103C37.1688 32.0481 37.1688 30.6372 36.3716 29.775L30.1529 23.0497C29.9645 22.8146 29.718 22.7048 29.4281 22.7048Z" fill="#8B46A3"/></svg>
