<svg version="1.2" baseProfile="tiny-ps" xmlns="http://www.w3.org/2000/svg" viewBox="0 0 900 225" width="900" height="225">
	<title>waves-bottom-svg</title>
	<style>
		tspan { white-space:pre }
		.shp0 { fill: #fa7268 } 
		.shp1 { fill: #ef5f67 } 
		.shp2 { fill: #e34c67 } 
		.shp3 { fill: #d53867 } 
		.shp4 { fill: #c62368 } 
	</style>
	<path id="Layer" class="shp0" d="M0 72L21.5 67.8C43 63.7 86 55.3 128.8 48.3C171.7 41.3 214.3 35.7 257.2 25.3C300 15 343 0 385.8 4.2C428.7 8.3 471.3 31.7 514.2 39C557 46.3 600 37.7 642.8 36.7C685.7 35.7 728.3 42.3 771.2 46.5C814 50.7 857 52.3 878.5 53.2L900 54L900 226L878.5 226C857 226 814 226 771.2 226C728.3 226 685.7 226 642.8 226C600 226 557 226 514.2 226C471.3 226 428.7 226 385.8 226C343 226 300 226 257.2 226C214.3 226 171.7 226 128.8 226C86 226 43 226 21.5 226L0 226L0 72Z" />
	<path id="Layer" class="shp1" d="M0 56L21.5 55.2C43 54.3 86 52.7 128.8 55.7C171.7 58.7 214.3 66.3 257.2 63C300 59.7 343 45.3 385.8 44.5C428.7 43.7 471.3 56.3 514.2 56.2C557 56 600 43 642.8 46.8C685.7 50.7 728.3 71.3 771.2 69.5C814 67.7 857 43.3 878.5 31.2L900 19L900 226L878.5 226C857 226 814 226 771.2 226C728.3 226 685.7 226 642.8 226C600 226 557 226 514.2 226C471.3 226 428.7 226 385.8 226C343 226 300 226 257.2 226C214.3 226 171.7 226 128.8 226C86 226 43 226 21.5 226L0 226L0 56Z" />
	<path id="Layer" class="shp2" d="M0 86L21.5 92.5C43 99 86 112 128.8 115.7C171.7 119.3 214.3 113.7 257.2 106.3C300 99 343 90 385.8 90.8C428.7 91.7 471.3 102.3 514.2 100C557 97.7 600 82.3 642.8 81.5C685.7 80.7 728.3 94.3 771.2 105.3C814 116.3 857 124.7 878.5 128.8L900 133L900 226L878.5 226C857 226 814 226 771.2 226C728.3 226 685.7 226 642.8 226C600 226 557 226 514.2 226C471.3 226 428.7 226 385.8 226C343 226 300 226 257.2 226C214.3 226 171.7 226 128.8 226C86 226 43 226 21.5 226L0 226L0 86Z" />
	<path id="Layer" class="shp3" d="M0 133L21.5 137.7C43 142.3 86 151.7 128.8 157.3C171.7 163 214.3 165 257.2 163.8C300 162.7 343 158.3 385.8 152.5C428.7 146.7 471.3 139.3 514.2 137.7C557 136 600 140 642.8 138.8C685.7 137.7 728.3 131.3 771.2 131.2C814 131 857 137 878.5 140L900 143L900 226L878.5 226C857 226 814 226 771.2 226C728.3 226 685.7 226 642.8 226C600 226 557 226 514.2 226C471.3 226 428.7 226 385.8 226C343 226 300 226 257.2 226C214.3 226 171.7 226 128.8 226C86 226 43 226 21.5 226L0 226L0 133Z" />
	<path id="Layer" class="shp4" d="M0 183L21.5 180.8C43 178.7 86 174.3 128.8 170.2C171.7 166 214.3 162 257.2 162.2C300 162.3 343 166.7 385.8 172.5C428.7 178.3 471.3 185.7 514.2 188.8C557 192 600 191 642.8 185.7C685.7 180.3 728.3 170.7 771.2 165.2C814 159.7 857 158.3 878.5 157.7L900 157L900 226L878.5 226C857 226 814 226 771.2 226C728.3 226 685.7 226 642.8 226C600 226 557 226 514.2 226C471.3 226 428.7 226 385.8 226C343 226 300 226 257.2 226C214.3 226 171.7 226 128.8 226C86 226 43 226 21.5 226L0 226L0 183Z" />
</svg>