<svg id="visual" viewBox="0 0 900 300" width="900" height="300" xmlns="http://www.w3.org/2000/svg" xmlns:xlink="http://www.w3.org/1999/xlink" version="1.1"><path d="M0 176L21.5 176.3C43 176.7 86 177.3 128.8 182.5C171.7 187.7 214.3 197.3 257.2 197.5C300 197.7 343 188.3 385.8 184.8C428.7 181.3 471.3 183.7 514.2 188C557 192.3 600 198.7 642.8 202.5C685.7 206.3 728.3 207.7 771.2 203.3C814 199 857 189 878.5 184L900 179L900 301L878.5 301C857 301 814 301 771.2 301C728.3 301 685.7 301 642.8 301C600 301 557 301 514.2 301C471.3 301 428.7 301 385.8 301C343 301 300 301 257.2 301C214.3 301 171.7 301 128.8 301C86 301 43 301 21.5 301L0 301Z" fill="#ffb200"></path><path d="M0 227L21.5 226.2C43 225.3 86 223.7 128.8 219C171.7 214.3 214.3 206.7 257.2 207.7C300 208.7 343 218.3 385.8 223.3C428.7 228.3 471.3 228.7 514.2 223.7C557 218.7 600 208.3 642.8 206C685.7 203.7 728.3 209.3 771.2 209.5C814 209.7 857 204.3 878.5 201.7L900 199L900 301L878.5 301C857 301 814 301 771.2 301C728.3 301 685.7 301 642.8 301C600 301 557 301 514.2 301C471.3 301 428.7 301 385.8 301C343 301 300 301 257.2 301C214.3 301 171.7 301 128.8 301C86 301 43 301 21.5 301L0 301Z" fill="#fd8626"></path><path d="M0 236L21.5 237.2C43 238.3 86 240.7 128.8 240.3C171.7 240 214.3 237 257.2 233C300 229 343 224 385.8 222.2C428.7 220.3 471.3 221.7 514.2 226C557 230.3 600 237.7 642.8 237.3C685.7 237 728.3 229 771.2 229.2C814 229.3 857 237.7 878.5 241.8L900 246L900 301L878.5 301C857 301 814 301 771.2 301C728.3 301 685.7 301 642.8 301C600 301 557 301 514.2 301C471.3 301 428.7 301 385.8 301C343 301 300 301 257.2 301C214.3 301 171.7 301 128.8 301C86 301 43 301 21.5 301L0 301Z" fill="#ee5d3d"></path><path d="M0 261L21.5 260.2C43 259.3 86 257.7 128.8 256.8C171.7 256 214.3 256 257.2 253.8C300 251.7 343 247.3 385.8 247.8C428.7 248.3 471.3 253.7 514.2 253.8C557 254 600 249 642.8 250C685.7 251 728.3 258 771.2 260.8C814 263.7 857 262.3 878.5 261.7L900 261L900 301L878.5 301C857 301 814 301 771.2 301C728.3 301 685.7 301 642.8 301C600 301 557 301 514.2 301C471.3 301 428.7 301 385.8 301C343 301 300 301 257.2 301C214.3 301 171.7 301 128.8 301C86 301 43 301 21.5 301L0 301Z" fill="#d3384d"></path><path d="M0 265L21.5 267C43 269 86 273 128.8 273.7C171.7 274.3 214.3 271.7 257.2 271C300 270.3 343 271.7 385.8 273.3C428.7 275 471.3 277 514.2 276.5C557 276 600 273 642.8 270.2C685.7 267.3 728.3 264.7 771.2 266.7C814 268.7 857 275.3 878.5 278.7L900 282L900 301L878.5 301C857 301 814 301 771.2 301C728.3 301 685.7 301 642.8 301C600 301 557 301 514.2 301C471.3 301 428.7 301 385.8 301C343 301 300 301 257.2 301C214.3 301 171.7 301 128.8 301C86 301 43 301 21.5 301L0 301Z" fill="#ae1b58"></path></svg>