<svg version="1.2" baseProfile="tiny-ps" xmlns="http://www.w3.org/2000/svg" viewBox="0 0 900 115" width="900" height="115">
	<title>waves-bottom-bottom-svg</title>
	<style>
		tspan { white-space:pre }
		.shp0 { fill: #ffb200 } 
		.shp1 { fill: #fd8626 } 
		.shp2 { fill: #ee5d3d } 
		.shp3 { fill: #d3384d } 
		.shp4 { fill: #ae1b58 } 
	</style>
	<path id="Layer" class="shp0" d="M0 80L21.5 83C43 86 86 92 128.8 98C171.7 104 214.3 110 257.2 110.2C300 110.3 343 104.7 385.8 97.8C428.7 91 471.3 83 514.2 79.3C557 75.7 600 76.3 642.8 78.2C685.7 80 728.3 83 771.2 85.8C814 88.7 857 91.3 878.5 92.7L900 94L900 0L878.5 0C857 0 814 0 771.2 0C728.3 0 685.7 0 642.8 0C600 0 557 0 514.2 0C471.3 0 428.7 0 385.8 0C343 0 300 0 257.2 0C214.3 0 171.7 0 128.8 0C86 0 43 0 21.5 0L0 0L0 80Z" />
	<path id="Layer" class="shp1" d="M0 76L21.5 74.5C43 73 86 70 128.8 69.5C171.7 69 214.3 71 257.2 71.8C300 72.7 343 72.3 385.8 71.5C428.7 70.7 471.3 69.3 514.2 73.2C557 77 600 86 642.8 88C685.7 90 728.3 85 771.2 79C814 73 857 66 878.5 62.5L900 59L900 0L878.5 0C857 0 814 0 771.2 0C728.3 0 685.7 0 642.8 0C600 0 557 0 514.2 0C471.3 0 428.7 0 385.8 0C343 0 300 0 257.2 0C214.3 0 171.7 0 128.8 0C86 0 43 0 21.5 0L0 0L0 76Z" />
	<path id="Layer" class="shp2" d="M0 49L21.5 50.3C43 51.7 86 54.3 128.8 58.3C171.7 62.3 214.3 67.7 257.2 68C300 68.3 343 63.7 385.8 63.7C428.7 63.7 471.3 68.3 514.2 68.3C557 68.3 600 63.7 642.8 63.7C685.7 63.7 728.3 68.3 771.2 65.7C814 63 857 53 878.5 48L900 43L900 0L878.5 0C857 0 814 0 771.2 0C728.3 0 685.7 0 642.8 0C600 0 557 0 514.2 0C471.3 0 428.7 0 385.8 0C343 0 300 0 257.2 0C214.3 0 171.7 0 128.8 0C86 0 43 0 21.5 0L0 0L0 49Z" />
	<path id="Layer" class="shp3" d="M0 31L21.5 33C43 35 86 39 128.8 42.7C171.7 46.3 214.3 49.7 257.2 51.5C300 53.3 343 53.7 385.8 49.7C428.7 45.7 471.3 37.3 514.2 36.7C557 36 600 43 642.8 45.7C685.7 48.3 728.3 46.7 771.2 46.3C814 46 857 47 878.5 47.5L900 48L900 0L878.5 0C857 0 814 0 771.2 0C728.3 0 685.7 0 642.8 0C600 0 557 0 514.2 0C471.3 0 428.7 0 385.8 0C343 0 300 0 257.2 0C214.3 0 171.7 0 128.8 0C86 0 43 0 21.5 0L0 0L0 31Z" />
	<path id="Layer" class="shp4" d="M0 32L21.5 29C43 26 86 20 128.8 17.5C171.7 15 214.3 16 257.2 17.2C300 18.3 343 19.7 385.8 20.8C428.7 22 471.3 23 514.2 23.2C557 23.3 600 22.7 642.8 22.2C685.7 21.7 728.3 21.3 771.2 21C814 20.7 857 20.3 878.5 20.2L900 20L900 0L878.5 0C857 0 814 0 771.2 0C728.3 0 685.7 0 642.8 0C600 0 557 0 514.2 0C471.3 0 428.7 0 385.8 0C343 0 300 0 257.2 0C214.3 0 171.7 0 128.8 0C86 0 43 0 21.5 0L0 0L0 32Z" />
</svg>