<svg id="visual" viewBox="0 0 900 300" width="900" height="300" xmlns="http://www.w3.org/2000/svg" xmlns:xlink="http://www.w3.org/1999/xlink" version="1.1"><path d="M0 95L21.5 97C43 99 86 103 128.8 105.7C171.7 108.3 214.3 109.7 257.2 108.3C300 107 343 103 385.8 98.7C428.7 94.3 471.3 89.7 514.2 86.3C557 83 600 81 642.8 85C685.7 89 728.3 99 771.2 104C814 109 857 109 878.5 109L900 109L900 0L878.5 0C857 0 814 0 771.2 0C728.3 0 685.7 0 642.8 0C600 0 557 0 514.2 0C471.3 0 428.7 0 385.8 0C343 0 300 0 257.2 0C214.3 0 171.7 0 128.8 0C86 0 43 0 21.5 0L0 0Z" fill="#f11beb"></path><path d="M0 63L21.5 63.5C43 64 86 65 128.8 69.8C171.7 74.7 214.3 83.3 257.2 84.3C300 85.3 343 78.7 385.8 77.2C428.7 75.7 471.3 79.3 514.2 82C557 84.7 600 86.3 642.8 85C685.7 83.7 728.3 79.3 771.2 77C814 74.7 857 74.3 878.5 74.2L900 74L900 0L878.5 0C857 0 814 0 771.2 0C728.3 0 685.7 0 642.8 0C600 0 557 0 514.2 0C471.3 0 428.7 0 385.8 0C343 0 300 0 257.2 0C214.3 0 171.7 0 128.8 0C86 0 43 0 21.5 0L0 0Z" fill="#d92be9"></path><path d="M0 79L21.5 75.7C43 72.3 86 65.7 128.8 61.7C171.7 57.7 214.3 56.3 257.2 57.2C300 58 343 61 385.8 59.5C428.7 58 471.3 52 514.2 50C557 48 600 50 642.8 53.8C685.7 57.7 728.3 63.3 771.2 63.8C814 64.3 857 59.7 878.5 57.3L900 55L900 0L878.5 0C857 0 814 0 771.2 0C728.3 0 685.7 0 642.8 0C600 0 557 0 514.2 0C471.3 0 428.7 0 385.8 0C343 0 300 0 257.2 0C214.3 0 171.7 0 128.8 0C86 0 43 0 21.5 0L0 0Z" fill="#c134e6"></path><path d="M0 29L21.5 32.2C43 35.3 86 41.7 128.8 44.7C171.7 47.7 214.3 47.3 257.2 47C300 46.7 343 46.3 385.8 45C428.7 43.7 471.3 41.3 514.2 41.8C557 42.3 600 45.7 642.8 45.3C685.7 45 728.3 41 771.2 41.8C814 42.7 857 48.3 878.5 51.2L900 54L900 0L878.5 0C857 0 814 0 771.2 0C728.3 0 685.7 0 642.8 0C600 0 557 0 514.2 0C471.3 0 428.7 0 385.8 0C343 0 300 0 257.2 0C214.3 0 171.7 0 128.8 0C86 0 43 0 21.5 0L0 0Z" fill="#a93ae2"></path><path d="M0 34L21.5 33.2C43 32.3 86 30.7 128.8 28.2C171.7 25.7 214.3 22.3 257.2 20.3C300 18.3 343 17.7 385.8 20.5C428.7 23.3 471.3 29.7 514.2 32.7C557 35.7 600 35.3 642.8 34C685.7 32.7 728.3 30.3 771.2 30.2C814 30 857 32 878.5 33L900 34L900 0L878.5 0C857 0 814 0 771.2 0C728.3 0 685.7 0 642.8 0C600 0 557 0 514.2 0C471.3 0 428.7 0 385.8 0C343 0 300 0 257.2 0C214.3 0 171.7 0 128.8 0C86 0 43 0 21.5 0L0 0Z" fill="#903edd"></path></svg>