<svg id="visual" viewBox="0 0 900 300" width="900" height="300" xmlns="http://www.w3.org/2000/svg" xmlns:xlink="http://www.w3.org/1999/xlink" version="1.1"><path d="M0 203L21.5 201C43 199 86 195 128.8 192.3C171.7 189.7 214.3 188.3 257.2 189.7C300 191 343 195 385.8 199.3C428.7 203.7 471.3 208.3 514.2 211.7C557 215 600 217 642.8 213C685.7 209 728.3 199 771.2 194C814 189 857 189 878.5 189L900 189L900 301L878.5 301C857 301 814 301 771.2 301C728.3 301 685.7 301 642.8 301C600 301 557 301 514.2 301C471.3 301 428.7 301 385.8 301C343 301 300 301 257.2 301C214.3 301 171.7 301 128.8 301C86 301 43 301 21.5 301L0 301Z" fill="#f48500"></path><path d="M0 235L21.5 234.5C43 234 86 233 128.8 228.2C171.7 223.3 214.3 214.7 257.2 213.7C300 212.7 343 219.3 385.8 220.8C428.7 222.3 471.3 218.7 514.2 216C557 213.3 600 211.7 642.8 213C685.7 214.3 728.3 218.7 771.2 221C814 223.3 857 223.7 878.5 223.8L900 224L900 301L878.5 301C857 301 814 301 771.2 301C728.3 301 685.7 301 642.8 301C600 301 557 301 514.2 301C471.3 301 428.7 301 385.8 301C343 301 300 301 257.2 301C214.3 301 171.7 301 128.8 301C86 301 43 301 21.5 301L0 301Z" fill="#f99800"></path><path d="M0 219L21.5 222.3C43 225.7 86 232.3 128.8 236.3C171.7 240.3 214.3 241.7 257.2 240.8C300 240 343 237 385.8 238.5C428.7 240 471.3 246 514.2 248C557 250 600 248 642.8 244.2C685.7 240.3 728.3 234.7 771.2 234.2C814 233.7 857 238.3 878.5 240.7L900 243L900 301L878.5 301C857 301 814 301 771.2 301C728.3 301 685.7 301 642.8 301C600 301 557 301 514.2 301C471.3 301 428.7 301 385.8 301C343 301 300 301 257.2 301C214.3 301 171.7 301 128.8 301C86 301 43 301 21.5 301L0 301Z" fill="#fcab00"></path><path d="M0 269L21.5 265.8C43 262.7 86 256.3 128.8 253.3C171.7 250.3 214.3 250.7 257.2 251C300 251.3 343 251.7 385.8 253C428.7 254.3 471.3 256.7 514.2 256.2C557 255.7 600 252.3 642.8 252.7C685.7 253 728.3 257 771.2 256.2C814 255.3 857 249.7 878.5 246.8L900 244L900 301L878.5 301C857 301 814 301 771.2 301C728.3 301 685.7 301 642.8 301C600 301 557 301 514.2 301C471.3 301 428.7 301 385.8 301C343 301 300 301 257.2 301C214.3 301 171.7 301 128.8 301C86 301 43 301 21.5 301L0 301Z" fill="#febe00"></path><path d="M0 264L21.5 264.8C43 265.7 86 267.3 128.8 269.8C171.7 272.3 214.3 275.7 257.2 277.7C300 279.7 343 280.3 385.8 277.5C428.7 274.7 471.3 268.3 514.2 265.3C557 262.3 600 262.7 642.8 264C685.7 265.3 728.3 267.7 771.2 267.8C814 268 857 266 878.5 265L900 264L900 301L878.5 301C857 301 814 301 771.2 301C728.3 301 685.7 301 642.8 301C600 301 557 301 514.2 301C471.3 301 428.7 301 385.8 301C343 301 300 301 257.2 301C214.3 301 171.7 301 128.8 301C86 301 43 301 21.5 301L0 301Z" fill="#ffd100"></path></svg>