<svg version="1.2" baseProfile="tiny-ps" xmlns="http://www.w3.org/2000/svg" viewBox="0 0 900 230" width="900" height="230">
	<title>waves-top-svg</title>
	<style>
		tspan { white-space:pre }
		.shp0 { fill: #ed69fa } 
		.shp1 { fill: #c058e5 } 
		.shp2 { fill: #9447cf } 
		.shp3 { fill: #6737b7 } 
		.shp4 { fill: #34299f } 
	</style>
	<path id="Layer" class="shp0" d="M0 237L21.5 231C43 225 86 213 128.8 208.7C171.7 204.3 214.3 207.7 257.2 201.5C300 195.3 343 179.7 385.8 186C428.7 192.3 471.3 220.7 514.2 226.2C557 231.7 600 214.3 642.8 204.3C685.7 194.3 728.3 191.7 771.2 197.2C814 202.7 857 216.3 878.5 223.2L900 230L900 0L878.5 0C857 0 814 0 771.2 0C728.3 0 685.7 0 642.8 0C600 0 557 0 514.2 0C471.3 0 428.7 0 385.8 0C343 0 300 0 257.2 0C214.3 0 171.7 0 128.8 0C86 0 43 0 21.5 0L0 0L0 237Z" />
	<path id="Layer" class="shp1" d="M0 161L21.5 153.8C43 146.7 86 132.3 128.8 134.7C171.7 137 214.3 156 257.2 159.5C300 163 343 151 385.8 145.3C428.7 139.7 471.3 140.3 514.2 150C557 159.7 600 178.3 642.8 184C685.7 189.7 728.3 182.3 771.2 179C814 175.7 857 176.3 878.5 176.7L900 177L900 0L878.5 0C857 0 814 0 771.2 0C728.3 0 685.7 0 642.8 0C600 0 557 0 514.2 0C471.3 0 428.7 0 385.8 0C343 0 300 0 257.2 0C214.3 0 171.7 0 128.8 0C86 0 43 0 21.5 0L0 0L0 161Z" />
	<path id="Layer" class="shp2" d="M0 146L21.5 136.8C43 127.7 86 109.3 128.8 100.2C171.7 91 214.3 91 257.2 95.8C300 100.7 343 110.3 385.8 119.8C428.7 129.3 471.3 138.7 514.2 144.3C557 150 600 152 642.8 152.7C685.7 153.3 728.3 152.7 771.2 151.3C814 150 857 148 878.5 147L900 146L900 0L878.5 0C857 0 814 0 771.2 0C728.3 0 685.7 0 642.8 0C600 0 557 0 514.2 0C471.3 0 428.7 0 385.8 0C343 0 300 0 257.2 0C214.3 0 171.7 0 128.8 0C86 0 43 0 21.5 0L0 0L0 146Z" />
	<path id="Layer" class="shp3" d="M0 98L21.5 97.2C43 96.3 86 94.7 128.8 95.7C171.7 96.7 214.3 100.3 257.2 97.2C300 94 343 84 385.8 78.7C428.7 73.3 471.3 72.7 514.2 77.8C557 83 600 94 642.8 97C685.7 100 728.3 95 771.2 93.7C814 92.3 857 94.7 878.5 95.8L900 97L900 0L878.5 0C857 0 814 0 771.2 0C728.3 0 685.7 0 642.8 0C600 0 557 0 514.2 0C471.3 0 428.7 0 385.8 0C343 0 300 0 257.2 0C214.3 0 171.7 0 128.8 0C86 0 43 0 21.5 0L0 0L0 98Z" />
	<path id="Layer" class="shp4" d="M0 44L21.5 47C43 50 86 56 128.8 57.2C171.7 58.3 214.3 54.7 257.2 53.3C300 52 343 53 385.8 48.8C428.7 44.7 471.3 35.3 514.2 34.8C557 34.3 600 42.7 642.8 44.7C685.7 46.7 728.3 42.3 771.2 42.7C814 43 857 48 878.5 50.5L900 53L900 0L878.5 0C857 0 814 0 771.2 0C728.3 0 685.7 0 642.8 0C600 0 557 0 514.2 0C471.3 0 428.7 0 385.8 0C343 0 300 0 257.2 0C214.3 0 171.7 0 128.8 0C86 0 43 0 21.5 0L0 0L0 44Z" />
</svg>