<svg width="50" height="50" viewBox="0 0 50 50" fill="none" xmlns="http://www.w3.org/2000/svg"><path d="M17.1875 31.25C22.7966 31.25 27.3438 26.7029 27.3438 21.0938C27.3438 15.4846 22.7966 10.9375 17.1875 10.9375C11.5784 10.9375 7.03125 15.4846 7.03125 21.0938C7.03125 26.7029 11.5784 31.25 17.1875 31.25Z" stroke="white" stroke-width="2" stroke-miterlimit="10"/><path d="M30.354 11.3158C31.7509 10.9222 33.216 10.8326 34.6504 11.0529C36.0849 11.2732 37.4555 11.7983 38.67 12.5929C39.8844 13.3876 40.9145 14.4332 41.6908 15.6594C42.4671 16.8856 42.9716 18.264 43.1703 19.7016C43.3691 21.1393 43.2574 22.6028 42.8429 23.9936C42.4284 25.3845 41.7207 26.6704 40.7674 27.7646C39.8141 28.8589 38.6373 29.7362 37.3164 30.3375C35.9955 30.9387 34.5611 31.2498 33.1098 31.25" stroke="white" stroke-width="2" stroke-linecap="round" stroke-linejoin="round"/><path d="M3.12427 38.554C4.71047 36.2978 6.81624 34.4563 9.26382 33.1851C11.7114 31.9138 14.4289 31.2501 17.1869 31.25C19.945 31.2499 22.6625 31.9134 25.1102 33.1844C27.5579 34.4555 29.6638 36.2968 31.2502 38.553" stroke="white" stroke-width="2" stroke-linecap="round" stroke-linejoin="round"/><path d="M33.1099 31.25C35.8681 31.248 38.5863 31.9107 41.0342 33.1819C43.482 34.4531 45.5875 36.2955 47.1724 38.553" stroke="white" stroke-width="2" stroke-linecap="round" stroke-linejoin="round"/></svg>