<svg width="512" height="512" viewBox="0 0 512 512" fill="none" xmlns="http://www.w3.org/2000/svg">
<rect width="512" height="512" rx="46" fill="#0C0E12"/>
<path d="M302.647 196L349.314 149.333M375.98 122.667L349.314 149.333L375.98 122.667ZM247.847 250.8C254.731 257.593 260.204 265.681 263.95 274.597C267.696 283.514 269.642 293.084 269.674 302.755C269.706 312.427 267.825 322.009 264.139 330.951C260.453 339.892 255.034 348.016 248.195 354.855C241.357 361.694 233.233 367.113 224.291 370.799C215.349 374.485 205.767 376.366 196.095 376.334C186.424 376.301 176.854 374.356 167.937 370.61C159.021 366.864 150.933 361.391 144.14 354.507C130.782 340.676 123.39 322.152 123.557 302.924C123.725 283.696 131.437 265.303 145.034 251.707C158.63 238.11 177.023 230.398 196.251 230.231C215.479 230.064 234.003 237.455 247.834 250.813L247.847 250.8ZM247.847 250.8L302.647 196L247.847 250.8ZM302.647 196L342.647 236L389.314 189.333L349.314 149.333L302.647 196Z" stroke="#9540BF" stroke-width="16" stroke-linecap="round" stroke-linejoin="round"/>
</svg>
