<svg width="50" height="50" viewBox="0 0 50 50" fill="none" xmlns="http://www.w3.org/2000/svg"><path d="M35.9375 35.9375H13.6364L8.18782 5.97049C8.12236 5.61047 7.93262 5.28485 7.65169 5.05039C7.37075 4.81593 7.01644 4.6875 6.65052 4.6875H3.125" stroke="white" stroke-width="2" stroke-linecap="round" stroke-linejoin="round"/><path d="M15.625 43.75C17.7824 43.75 19.5312 42.0011 19.5312 39.8438C19.5312 37.6864 17.7824 35.9375 15.625 35.9375C13.4676 35.9375 11.7188 37.6864 11.7188 39.8438C11.7188 42.0011 13.4676 43.75 15.625 43.75Z" stroke="white" stroke-width="2" stroke-linecap="round" stroke-linejoin="round"/><path d="M35.9375 43.75C38.0949 43.75 39.8438 42.0011 39.8438 39.8438C39.8438 37.6864 38.0949 35.9375 35.9375 35.9375C33.7801 35.9375 32.0312 37.6864 32.0312 39.8438C32.0312 42.0011 33.7801 43.75 35.9375 43.75Z" stroke="white" stroke-width="2" stroke-linecap="round" stroke-linejoin="round"/><path d="M12.2159 28.125H36.7385C37.4704 28.125 38.179 27.8681 38.7409 27.3992C39.3027 26.9303 39.6822 26.2791 39.8131 25.559L42.1875 12.5H9.375" stroke="white" stroke-width="2" stroke-linecap="round" stroke-linejoin="round"/></svg>
