<svg id="visual" viewBox="0 0 960 540" width="960" height="540" xmlns="http://www.w3.org/2000/svg" xmlns:xlink="http://www.w3.org/1999/xlink" version="1.1"><g stroke-width="1" stroke-linejoin="bevel"><path d="M505 262L505 281L563 253Z" fill="#002d6f" stroke="#002d6f"></path><path d="M563 253L533 238L505 262Z" fill="#8a1cd2" stroke="#8a1cd2"></path><path d="M505 281L551 311L563 253Z" fill="#002d6f" stroke="#002d6f"></path><path d="M505 262L483 306L505 281Z" fill="#001930" stroke="#001930"></path><path d="M505 281L483 306L551 311Z" fill="#5232b7" stroke="#5232b7"></path><path d="M551 311L597 305L563 253Z" fill="#5232b7" stroke="#5232b7"></path><path d="M555 346L568 334L551 311Z" fill="#3834a7" stroke="#3834a7"></path><path d="M551 311L568 334L597 305Z" fill="#002145" stroke="#002145"></path><path d="M531 364L555 346L551 311Z" fill="#8a1cd2" stroke="#8a1cd2"></path><path d="M622 245L556 196L563 253Z" fill="#1e3396" stroke="#1e3396"></path><path d="M563 253L556 196L533 238Z" fill="#3834a7" stroke="#3834a7"></path><path d="M533 238L499 181L505 262Z" fill="#1e3396" stroke="#1e3396"></path><path d="M412 330L470 327L483 306Z" fill="#003183" stroke="#003183"></path><path d="M483 306L531 364L551 311Z" fill="#001930" stroke="#001930"></path><path d="M597 305L622 245L563 253Z" fill="#8a1cd2" stroke="#8a1cd2"></path><path d="M568 334L592 345L597 305Z" fill="#002145" stroke="#002145"></path><path d="M597 305L636 288L622 245Z" fill="#00275a" stroke="#00275a"></path><path d="M555 346L592 345L568 334Z" fill="#6d2bc6" stroke="#6d2bc6"></path><path d="M470 327L531 364L483 306Z" fill="#6d2bc6" stroke="#6d2bc6"></path><path d="M607 399L597 348L592 345Z" fill="#1e3396" stroke="#1e3396"></path><path d="M607 399L592 345L555 346Z" fill="#002d6f" stroke="#002d6f"></path><path d="M592 345L622 329L597 305Z" fill="#001930" stroke="#001930"></path><path d="M556 196L499 181L533 238Z" fill="#8a1cd2" stroke="#8a1cd2"></path><path d="M505 262L438 238L483 306Z" fill="#002145" stroke="#002145"></path><path d="M622 329L636 288L597 305Z" fill="#002d6f" stroke="#002d6f"></path><path d="M499 181L439 237L505 262Z" fill="#6d2bc6" stroke="#6d2bc6"></path><path d="M597 348L622 329L592 345Z" fill="#002d6f" stroke="#002d6f"></path><path d="M439 237L438 238L505 262Z" fill="#5232b7" stroke="#5232b7"></path><path d="M470 327L515 374L531 364Z" fill="#1e3396" stroke="#1e3396"></path><path d="M531 364L607 399L555 346Z" fill="#3834a7" stroke="#3834a7"></path><path d="M636 288L643 260L622 245Z" fill="#8a1cd2" stroke="#8a1cd2"></path><path d="M622 245L585 172L556 196Z" fill="#00101c" stroke="#00101c"></path><path d="M585 164L585 172L592 156Z" fill="#00101c" stroke="#00101c"></path><path d="M556 196L517 154L499 181Z" fill="#00275a" stroke="#00275a"></path><path d="M592 156L585 172L663 194Z" fill="#8a1cd2" stroke="#8a1cd2"></path><path d="M585 172L585 164L556 196Z" fill="#00275a" stroke="#00275a"></path><path d="M552 140L517 154L556 196Z" fill="#1e3396" stroke="#1e3396"></path><path d="M499 181L429 191L439 237Z" fill="#002145" stroke="#002145"></path><path d="M429 191L418 253L438 238Z" fill="#003183" stroke="#003183"></path><path d="M429 191L438 238L439 237Z" fill="#003183" stroke="#003183"></path><path d="M438 238L418 253L483 306Z" fill="#002145" stroke="#002145"></path><path d="M517 154L485 155L499 181Z" fill="#1e3396" stroke="#1e3396"></path><path d="M663 194L585 172L622 245Z" fill="#3834a7" stroke="#3834a7"></path><path d="M585 164L552 140L556 196Z" fill="#00101c" stroke="#00101c"></path><path d="M592 156L552 140L585 164Z" fill="#001930" stroke="#001930"></path><path d="M479 100L460 120L485 155Z" fill="#6d2bc6" stroke="#6d2bc6"></path><path d="M485 155L429 191L499 181Z" fill="#001930" stroke="#001930"></path><path d="M715 275L666 233L643 260Z" fill="#1e3396" stroke="#1e3396"></path><path d="M643 260L666 233L622 245Z" fill="#003183" stroke="#003183"></path><path d="M715 275L643 260L636 288Z" fill="#8a1cd2" stroke="#8a1cd2"></path><path d="M414 373L461 386L470 327Z" fill="#5232b7" stroke="#5232b7"></path><path d="M470 327L461 386L515 374Z" fill="#00275a" stroke="#00275a"></path><path d="M418 253L412 330L483 306Z" fill="#6d2bc6" stroke="#6d2bc6"></path><path d="M546 427L531 364L515 374Z" fill="#002145" stroke="#002145"></path><path d="M546 427L607 399L531 364Z" fill="#003183" stroke="#003183"></path><path d="M597 348L635 389L622 329Z" fill="#3834a7" stroke="#3834a7"></path><path d="M622 329L715 275L636 288Z" fill="#00101c" stroke="#00101c"></path><path d="M666 233L663 194L622 245Z" fill="#003183" stroke="#003183"></path><path d="M374 240L386 269L418 253Z" fill="#5232b7" stroke="#5232b7"></path><path d="M418 253L386 269L412 330Z" fill="#002d6f" stroke="#002d6f"></path><path d="M607 399L628 393L597 348Z" fill="#6d2bc6" stroke="#6d2bc6"></path><path d="M628 393L635 389L597 348Z" fill="#00275a" stroke="#00275a"></path><path d="M461 386L546 427L515 374Z" fill="#00275a" stroke="#00275a"></path><path d="M607 399L635 432L628 393Z" fill="#002145" stroke="#002145"></path><path d="M485 155L414 174L429 191Z" fill="#8a1cd2" stroke="#8a1cd2"></path><path d="M429 191L374 240L418 253Z" fill="#00101c" stroke="#00101c"></path><path d="M373 377L414 373L412 330Z" fill="#002145" stroke="#002145"></path><path d="M412 330L414 373L470 327Z" fill="#002145" stroke="#002145"></path><path d="M461 386L441 474L546 427Z" fill="#001930" stroke="#001930"></path><path d="M414 174L374 240L429 191Z" fill="#002d6f" stroke="#002d6f"></path><path d="M373 377L411 393L414 373Z" fill="#00275a" stroke="#00275a"></path><path d="M646 112L608 118L592 156Z" fill="#001930" stroke="#001930"></path><path d="M592 156L608 118L552 140Z" fill="#003183" stroke="#003183"></path><path d="M479 100L485 155L517 154Z" fill="#00101c" stroke="#00101c"></path><path d="M485 155L460 120L414 174Z" fill="#5232b7" stroke="#5232b7"></path><path d="M479 100L517 154L506 80Z" fill="#003183" stroke="#003183"></path><path d="M361 345L412 330L386 269Z" fill="#8a1cd2" stroke="#8a1cd2"></path><path d="M414 373L411 393L461 386Z" fill="#001930" stroke="#001930"></path><path d="M727 280L715 275L743 387Z" fill="#1e3396" stroke="#1e3396"></path><path d="M666 233L696 166L663 194Z" fill="#00275a" stroke="#00275a"></path><path d="M506 80L517 154L552 140Z" fill="#1e3396" stroke="#1e3396"></path><path d="M420 100L402 143L460 120Z" fill="#1e3396" stroke="#1e3396"></path><path d="M460 120L402 143L414 174Z" fill="#002d6f" stroke="#002d6f"></path><path d="M414 174L365 153L374 240Z" fill="#00101c" stroke="#00101c"></path><path d="M597 466L635 432L607 399Z" fill="#6d2bc6" stroke="#6d2bc6"></path><path d="M628 393L635 432L635 389Z" fill="#002d6f" stroke="#002d6f"></path><path d="M743 387L715 275L622 329Z" fill="#1e3396" stroke="#1e3396"></path><path d="M329 283L361 345L386 269Z" fill="#002145" stroke="#002145"></path><path d="M743 387L622 329L635 389Z" fill="#6d2bc6" stroke="#6d2bc6"></path><path d="M750 218L696 166L666 233Z" fill="#1e3396" stroke="#1e3396"></path><path d="M663 194L646 112L592 156Z" fill="#6d2bc6" stroke="#6d2bc6"></path><path d="M750 218L666 233L715 275Z" fill="#00101c" stroke="#00101c"></path><path d="M688 149L646 112L663 194Z" fill="#00275a" stroke="#00275a"></path><path d="M544 47L506 80L552 140Z" fill="#002145" stroke="#002145"></path><path d="M597 68L552 140L608 118Z" fill="#00275a" stroke="#00275a"></path><path d="M479 100L420 100L460 120Z" fill="#6d2bc6" stroke="#6d2bc6"></path><path d="M361 345L373 377L412 330Z" fill="#003183" stroke="#003183"></path><path d="M696 166L688 149L663 194Z" fill="#1e3396" stroke="#1e3396"></path><path d="M546 427L586 467L607 399Z" fill="#003183" stroke="#003183"></path><path d="M498 507L586 467L546 427Z" fill="#1e3396" stroke="#1e3396"></path><path d="M441 474L461 386L411 393Z" fill="#002d6f" stroke="#002d6f"></path><path d="M586 467L597 466L607 399Z" fill="#002d6f" stroke="#002d6f"></path><path d="M447 7L420 100L479 100Z" fill="#001930" stroke="#001930"></path><path d="M295 284L329 283L293 229Z" fill="#001930" stroke="#001930"></path><path d="M374 240L329 283L386 269Z" fill="#1e3396" stroke="#1e3396"></path><path d="M361 345L354 384L373 377Z" fill="#3834a7" stroke="#3834a7"></path><path d="M365 153L414 174L402 143Z" fill="#001930" stroke="#001930"></path><path d="M383 112L365 153L402 143Z" fill="#002145" stroke="#002145"></path><path d="M607 53L597 68L646 112Z" fill="#002d6f" stroke="#002d6f"></path><path d="M646 112L597 68L608 118Z" fill="#00101c" stroke="#00101c"></path><path d="M313 331L354 384L361 345Z" fill="#6d2bc6" stroke="#6d2bc6"></path><path d="M373 377L361 411L411 393Z" fill="#002d6f" stroke="#002d6f"></path><path d="M585 534L610 476L586 467Z" fill="#8a1cd2" stroke="#8a1cd2"></path><path d="M586 467L610 476L597 466Z" fill="#002d6f" stroke="#002d6f"></path><path d="M597 466L637 465L635 432Z" fill="#3834a7" stroke="#3834a7"></path><path d="M745 400L743 387L635 389Z" fill="#00101c" stroke="#00101c"></path><path d="M610 476L637 465L597 466Z" fill="#00101c" stroke="#00101c"></path><path d="M755 236L750 218L715 275Z" fill="#003183" stroke="#003183"></path><path d="M696 166L711 96L688 149Z" fill="#6d2bc6" stroke="#6d2bc6"></path><path d="M420 100L383 112L402 143Z" fill="#002145" stroke="#002145"></path><path d="M727 280L755 236L715 275Z" fill="#00101c" stroke="#00101c"></path><path d="M789 249L755 236L792 275Z" fill="#8a1cd2" stroke="#8a1cd2"></path><path d="M402 489L441 474L411 393Z" fill="#00275a" stroke="#00275a"></path><path d="M354 384L361 411L373 377Z" fill="#3834a7" stroke="#3834a7"></path><path d="M563 48L544 47L552 140Z" fill="#00101c" stroke="#00101c"></path><path d="M506 80L497 30L479 100Z" fill="#00101c" stroke="#00101c"></path><path d="M420 100L394 52L383 112Z" fill="#5232b7" stroke="#5232b7"></path><path d="M597 68L563 48L552 140Z" fill="#3834a7" stroke="#3834a7"></path><path d="M678 77L607 53L646 112Z" fill="#003183" stroke="#003183"></path><path d="M597 68L607 53L563 48Z" fill="#003183" stroke="#003183"></path><path d="M678 77L646 112L711 96Z" fill="#1e3396" stroke="#1e3396"></path><path d="M752 187L751 189L750 218Z" fill="#003183" stroke="#003183"></path><path d="M750 218L751 189L696 166Z" fill="#1e3396" stroke="#1e3396"></path><path d="M402 489L446 484L441 474Z" fill="#5232b7" stroke="#5232b7"></path><path d="M441 474L498 507L546 427Z" fill="#3834a7" stroke="#3834a7"></path><path d="M295 284L313 331L329 283Z" fill="#00275a" stroke="#00275a"></path><path d="M329 283L313 331L361 345Z" fill="#00101c" stroke="#00101c"></path><path d="M354 384L288 439L361 411Z" fill="#00101c" stroke="#00101c"></path><path d="M828 205L752 187L750 218Z" fill="#001930" stroke="#001930"></path><path d="M751 189L752 187L696 166Z" fill="#3834a7" stroke="#3834a7"></path><path d="M745 400L635 389L635 432Z" fill="#002145" stroke="#002145"></path><path d="M610 476L641 484L637 465Z" fill="#00101c" stroke="#00101c"></path><path d="M748 438L745 400L737 452Z" fill="#1e3396" stroke="#1e3396"></path><path d="M632 540L641 484L610 476Z" fill="#00101c" stroke="#00101c"></path><path d="M446 484L498 507L441 474Z" fill="#002d6f" stroke="#002d6f"></path><path d="M711 96L646 112L688 149Z" fill="#1e3396" stroke="#1e3396"></path><path d="M293 229L329 283L374 240Z" fill="#8a1cd2" stroke="#8a1cd2"></path><path d="M293 229L374 240L309 172Z" fill="#3834a7" stroke="#3834a7"></path><path d="M383 112L337 131L365 153Z" fill="#8a1cd2" stroke="#8a1cd2"></path><path d="M509 6L544 47L593 0Z" fill="#5232b7" stroke="#5232b7"></path><path d="M509 6L497 30L544 47Z" fill="#5232b7" stroke="#5232b7"></path><path d="M544 47L497 30L506 80Z" fill="#00101c" stroke="#00101c"></path><path d="M383 112L334 85L337 131Z" fill="#00275a" stroke="#00275a"></path><path d="M745 400L635 432L737 452Z" fill="#00101c" stroke="#00101c"></path><path d="M792 275L755 236L727 280Z" fill="#6d2bc6" stroke="#6d2bc6"></path><path d="M309 172L374 240L365 153Z" fill="#002145" stroke="#002145"></path><path d="M753 93L711 96L696 166Z" fill="#002d6f" stroke="#002d6f"></path><path d="M337 131L309 172L365 153Z" fill="#00275a" stroke="#00275a"></path><path d="M792 275L727 280L801 330Z" fill="#001930" stroke="#001930"></path><path d="M755 236L789 249L750 218Z" fill="#6d2bc6" stroke="#6d2bc6"></path><path d="M752 187L753 93L696 166Z" fill="#00101c" stroke="#00101c"></path><path d="M361 411L402 489L411 393Z" fill="#3834a7" stroke="#3834a7"></path><path d="M446 484L452 540L498 507Z" fill="#00101c" stroke="#00101c"></path><path d="M362 489L402 489L361 411Z" fill="#002145" stroke="#002145"></path><path d="M801 330L727 280L743 387Z" fill="#8a1cd2" stroke="#8a1cd2"></path><path d="M295 284L286 330L313 331Z" fill="#6d2bc6" stroke="#6d2bc6"></path><path d="M269 420L288 439L354 384Z" fill="#6d2bc6" stroke="#6d2bc6"></path><path d="M250 324L286 330L295 284Z" fill="#8a1cd2" stroke="#8a1cd2"></path><path d="M532 540L535 531L498 507Z" fill="#5232b7" stroke="#5232b7"></path><path d="M498 507L535 531L586 467Z" fill="#1e3396" stroke="#1e3396"></path><path d="M447 7L394 52L420 100Z" fill="#002145" stroke="#002145"></path><path d="M593 0L544 47L563 48Z" fill="#3834a7" stroke="#3834a7"></path><path d="M497 30L447 7L479 100Z" fill="#3834a7" stroke="#3834a7"></path><path d="M593 0L563 48L607 53Z" fill="#00275a" stroke="#00275a"></path><path d="M567 540L585 534L586 467Z" fill="#00275a" stroke="#00275a"></path><path d="M737 452L635 432L729 466Z" fill="#001930" stroke="#001930"></path><path d="M452 540L532 540L498 507Z" fill="#002d6f" stroke="#002d6f"></path><path d="M535 531L567 540L586 467Z" fill="#1e3396" stroke="#1e3396"></path><path d="M635 432L637 465L729 466Z" fill="#5232b7" stroke="#5232b7"></path><path d="M788 414L801 330L743 387Z" fill="#002145" stroke="#002145"></path><path d="M729 466L637 465L641 484Z" fill="#3834a7" stroke="#3834a7"></path><path d="M532 540L567 540L535 531Z" fill="#5232b7" stroke="#5232b7"></path><path d="M788 414L743 387L745 400Z" fill="#003183" stroke="#003183"></path><path d="M840 237L828 205L789 249Z" fill="#6d2bc6" stroke="#6d2bc6"></path><path d="M394 52L351 71L383 112Z" fill="#6d2bc6" stroke="#6d2bc6"></path><path d="M337 131L275 99L309 172Z" fill="#001930" stroke="#001930"></path><path d="M737 452L746 464L748 438Z" fill="#3834a7" stroke="#3834a7"></path><path d="M679 540L729 466L641 484Z" fill="#002d6f" stroke="#002d6f"></path><path d="M351 71L334 85L383 112Z" fill="#6d2bc6" stroke="#6d2bc6"></path><path d="M509 6L489 0L497 30Z" fill="#5232b7" stroke="#5232b7"></path><path d="M394 52L347 0L351 71Z" fill="#3834a7" stroke="#3834a7"></path><path d="M489 0L484 0L497 30Z" fill="#002d6f" stroke="#002d6f"></path><path d="M612 0L607 53L656 0Z" fill="#003183" stroke="#003183"></path><path d="M612 0L593 0L607 53Z" fill="#001930" stroke="#001930"></path><path d="M509 6L593 0L489 0Z" fill="#1e3396" stroke="#1e3396"></path><path d="M327 489L362 489L361 411Z" fill="#1e3396" stroke="#1e3396"></path><path d="M438 540L452 540L446 484Z" fill="#001930" stroke="#001930"></path><path d="M484 0L447 7L497 30Z" fill="#002d6f" stroke="#002d6f"></path><path d="M798 98L753 93L752 187Z" fill="#3834a7" stroke="#3834a7"></path><path d="M711 96L747 72L678 77Z" fill="#00275a" stroke="#00275a"></path><path d="M438 540L446 484L402 489Z" fill="#1e3396" stroke="#1e3396"></path><path d="M221 191L256 243L293 229Z" fill="#001930" stroke="#001930"></path><path d="M293 229L256 243L295 284Z" fill="#8a1cd2" stroke="#8a1cd2"></path><path d="M221 191L293 229L309 172Z" fill="#3834a7" stroke="#3834a7"></path><path d="M663 6L607 53L678 77Z" fill="#002145" stroke="#002145"></path><path d="M351 71L329 78L334 85Z" fill="#3834a7" stroke="#3834a7"></path><path d="M334 85L275 99L337 131Z" fill="#5232b7" stroke="#5232b7"></path><path d="M330 0L329 78L351 71Z" fill="#002145" stroke="#002145"></path><path d="M727 534L746 464L729 466Z" fill="#1e3396" stroke="#1e3396"></path><path d="M729 466L746 464L737 452Z" fill="#6d2bc6" stroke="#6d2bc6"></path><path d="M748 438L788 414L745 400Z" fill="#00101c" stroke="#00101c"></path><path d="M567 540L632 540L585 534Z" fill="#6d2bc6" stroke="#6d2bc6"></path><path d="M585 534L632 540L610 476Z" fill="#6d2bc6" stroke="#6d2bc6"></path><path d="M385 526L438 540L402 489Z" fill="#1e3396" stroke="#1e3396"></path><path d="M778 472L788 414L748 438Z" fill="#002d6f" stroke="#002d6f"></path><path d="M753 93L747 72L711 96Z" fill="#3834a7" stroke="#3834a7"></path><path d="M256 243L250 324L295 284Z" fill="#5232b7" stroke="#5232b7"></path><path d="M269 420L354 384L313 331Z" fill="#1e3396" stroke="#1e3396"></path><path d="M632 540L651 540L641 484Z" fill="#001930" stroke="#001930"></path><path d="M745 0L663 6L678 77Z" fill="#00101c" stroke="#00101c"></path><path d="M324 492L385 526L362 489Z" fill="#6d2bc6" stroke="#6d2bc6"></path><path d="M362 489L385 526L402 489Z" fill="#5232b7" stroke="#5232b7"></path><path d="M788 414L824 343L801 330Z" fill="#1e3396" stroke="#1e3396"></path><path d="M801 330L834 332L792 275Z" fill="#3834a7" stroke="#3834a7"></path><path d="M789 249L828 205L750 218Z" fill="#002d6f" stroke="#002d6f"></path><path d="M745 0L656 0L663 6Z" fill="#001930" stroke="#001930"></path><path d="M663 6L656 0L607 53Z" fill="#002145" stroke="#002145"></path><path d="M447 7L416 0L394 52Z" fill="#5232b7" stroke="#5232b7"></path><path d="M484 0L416 0L447 7Z" fill="#002d6f" stroke="#002d6f"></path><path d="M840 237L789 249L842 262Z" fill="#003183" stroke="#003183"></path><path d="M753 93L802 85L747 72Z" fill="#1e3396" stroke="#1e3396"></path><path d="M269 420L313 331L286 330Z" fill="#1e3396" stroke="#1e3396"></path><path d="M269 420L288 440L288 439Z" fill="#5232b7" stroke="#5232b7"></path><path d="M288 439L309 475L361 411Z" fill="#00275a" stroke="#00275a"></path><path d="M309 475L327 489L361 411Z" fill="#003183" stroke="#003183"></path><path d="M852 393L831 340L824 343Z" fill="#3834a7" stroke="#3834a7"></path><path d="M824 343L834 332L801 330Z" fill="#00275a" stroke="#00275a"></path><path d="M831 340L834 332L824 343Z" fill="#3834a7" stroke="#3834a7"></path><path d="M651 540L679 540L641 484Z" fill="#6d2bc6" stroke="#6d2bc6"></path><path d="M288 440L309 475L288 439Z" fill="#5232b7" stroke="#5232b7"></path><path d="M250 324L269 420L286 330Z" fill="#003183" stroke="#003183"></path><path d="M288 440L260 490L309 475Z" fill="#001930" stroke="#001930"></path><path d="M842 262L789 249L792 275Z" fill="#8a1cd2" stroke="#8a1cd2"></path><path d="M834 332L842 262L792 275Z" fill="#3834a7" stroke="#3834a7"></path><path d="M309 475L324 492L327 489Z" fill="#6d2bc6" stroke="#6d2bc6"></path><path d="M327 489L324 492L362 489Z" fill="#002145" stroke="#002145"></path><path d="M306 540L388 540L385 526Z" fill="#001930" stroke="#001930"></path><path d="M385 526L388 540L438 540Z" fill="#8a1cd2" stroke="#8a1cd2"></path><path d="M831 340L839 331L834 332Z" fill="#6d2bc6" stroke="#6d2bc6"></path><path d="M834 332L839 331L842 262Z" fill="#001930" stroke="#001930"></path><path d="M852 393L839 331L831 340Z" fill="#5232b7" stroke="#5232b7"></path><path d="M254 14L275 99L329 78Z" fill="#00275a" stroke="#00275a"></path><path d="M329 78L275 99L334 85Z" fill="#8a1cd2" stroke="#8a1cd2"></path><path d="M833 154L798 98L752 187Z" fill="#002145" stroke="#002145"></path><path d="M747 72L745 0L678 77Z" fill="#8a1cd2" stroke="#8a1cd2"></path><path d="M833 154L752 187L828 205Z" fill="#002145" stroke="#002145"></path><path d="M746 464L778 472L748 438Z" fill="#6d2bc6" stroke="#6d2bc6"></path><path d="M788 414L836 412L824 343Z" fill="#5232b7" stroke="#5232b7"></path><path d="M755 540L778 472L746 464Z" fill="#001930" stroke="#001930"></path><path d="M852 173L833 154L828 205Z" fill="#001930" stroke="#001930"></path><path d="M243 99L264 103L230 73Z" fill="#002d6f" stroke="#002d6f"></path><path d="M275 99L264 103L309 172Z" fill="#002d6f" stroke="#002d6f"></path><path d="M256 243L198 288L250 324Z" fill="#6d2bc6" stroke="#6d2bc6"></path><path d="M679 540L727 534L729 466Z" fill="#8a1cd2" stroke="#8a1cd2"></path><path d="M851 97L802 85L798 98Z" fill="#1e3396" stroke="#1e3396"></path><path d="M798 98L802 85L753 93Z" fill="#1e3396" stroke="#1e3396"></path><path d="M228 144L221 191L309 172Z" fill="#8a1cd2" stroke="#8a1cd2"></path><path d="M250 324L213 385L269 420Z" fill="#3834a7" stroke="#3834a7"></path><path d="M889 236L852 173L828 205Z" fill="#3834a7" stroke="#3834a7"></path><path d="M833 154L851 97L798 98Z" fill="#3834a7" stroke="#3834a7"></path><path d="M889 236L828 205L840 237Z" fill="#003183" stroke="#003183"></path><path d="M889 236L840 237L842 262Z" fill="#001930" stroke="#001930"></path><path d="M416 0L347 0L394 52Z" fill="#6d2bc6" stroke="#6d2bc6"></path><path d="M778 472L836 412L788 414Z" fill="#00101c" stroke="#00101c"></path><path d="M902 263L889 236L842 262Z" fill="#002d6f" stroke="#002d6f"></path><path d="M848 487L836 412L778 472Z" fill="#003183" stroke="#003183"></path><path d="M243 99L228 144L264 103Z" fill="#6d2bc6" stroke="#6d2bc6"></path><path d="M264 103L228 144L309 172Z" fill="#1e3396" stroke="#1e3396"></path><path d="M836 412L852 393L824 343Z" fill="#001930" stroke="#001930"></path><path d="M198 252L256 243L197 247Z" fill="#003183" stroke="#003183"></path><path d="M198 252L198 288L256 243Z" fill="#002145" stroke="#002145"></path><path d="M197 247L256 243L221 191Z" fill="#001930" stroke="#001930"></path><path d="M133 174L197 247L221 191Z" fill="#00101c" stroke="#00101c"></path><path d="M122 320L167 326L115 258Z" fill="#5232b7" stroke="#5232b7"></path><path d="M230 73L264 103L275 99Z" fill="#003183" stroke="#003183"></path><path d="M198 288L199 318L250 324Z" fill="#1e3396" stroke="#1e3396"></path><path d="M347 0L330 0L351 71Z" fill="#3834a7" stroke="#3834a7"></path><path d="M787 0L745 0L747 72Z" fill="#3834a7" stroke="#3834a7"></path><path d="M199 318L213 385L250 324Z" fill="#5232b7" stroke="#5232b7"></path><path d="M269 420L260 490L288 440Z" fill="#003183" stroke="#003183"></path><path d="M309 475L298 540L324 492Z" fill="#8a1cd2" stroke="#8a1cd2"></path><path d="M679 540L755 540L727 534Z" fill="#001930" stroke="#001930"></path><path d="M727 534L755 540L746 464Z" fill="#001930" stroke="#001930"></path><path d="M913 426L916 410L852 393Z" fill="#00101c" stroke="#00101c"></path><path d="M178 439L260 490L269 420Z" fill="#002145" stroke="#002145"></path><path d="M324 492L306 540L385 526Z" fill="#1e3396" stroke="#1e3396"></path><path d="M298 540L306 540L324 492Z" fill="#00275a" stroke="#00275a"></path><path d="M892 335L842 262L839 331Z" fill="#1e3396" stroke="#1e3396"></path><path d="M892 147L851 97L833 154Z" fill="#1e3396" stroke="#1e3396"></path><path d="M260 490L298 540L309 475Z" fill="#1e3396" stroke="#1e3396"></path><path d="M892 147L833 154L852 173Z" fill="#3834a7" stroke="#3834a7"></path><path d="M818 25L787 0L747 72Z" fill="#5232b7" stroke="#5232b7"></path><path d="M912 324L892 335L916 410Z" fill="#8a1cd2" stroke="#8a1cd2"></path><path d="M852 393L892 335L839 331Z" fill="#1e3396" stroke="#1e3396"></path><path d="M185 140L228 144L243 99Z" fill="#5232b7" stroke="#5232b7"></path><path d="M185 140L193 151L228 144Z" fill="#002d6f" stroke="#002d6f"></path><path d="M228 144L193 151L221 191Z" fill="#002145" stroke="#002145"></path><path d="M115 258L198 288L198 252Z" fill="#002145" stroke="#002145"></path><path d="M198 288L167 326L199 318Z" fill="#001930" stroke="#001930"></path><path d="M254 14L230 73L275 99Z" fill="#6d2bc6" stroke="#6d2bc6"></path><path d="M892 335L902 263L842 262Z" fill="#5232b7" stroke="#5232b7"></path><path d="M901 168L892 147L852 173Z" fill="#00101c" stroke="#00101c"></path><path d="M801 540L826 500L778 472Z" fill="#002d6f" stroke="#002d6f"></path><path d="M818 25L747 72L802 85Z" fill="#002d6f" stroke="#002d6f"></path><path d="M115 258L198 252L197 247Z" fill="#5232b7" stroke="#5232b7"></path><path d="M199 318L168 346L213 385Z" fill="#1e3396" stroke="#1e3396"></path><path d="M213 385L178 439L269 420Z" fill="#00101c" stroke="#00101c"></path><path d="M167 326L168 338L199 318Z" fill="#002145" stroke="#002145"></path><path d="M837 46L818 25L802 85Z" fill="#1e3396" stroke="#1e3396"></path><path d="M230 73L185 140L243 99Z" fill="#8a1cd2" stroke="#8a1cd2"></path><path d="M193 151L133 174L221 191Z" fill="#00101c" stroke="#00101c"></path><path d="M123 343L168 346L168 338Z" fill="#00101c" stroke="#00101c"></path><path d="M168 338L168 346L199 318Z" fill="#3834a7" stroke="#3834a7"></path><path d="M874 65L837 46L851 97Z" fill="#3834a7" stroke="#3834a7"></path><path d="M851 97L837 46L802 85Z" fill="#1e3396" stroke="#1e3396"></path><path d="M901 168L852 173L889 236Z" fill="#002d6f" stroke="#002d6f"></path><path d="M755 540L801 540L778 472Z" fill="#8a1cd2" stroke="#8a1cd2"></path><path d="M897 0L800 0L818 25Z" fill="#1e3396" stroke="#1e3396"></path><path d="M818 25L800 0L787 0Z" fill="#00101c" stroke="#00101c"></path><path d="M885 540L848 487L826 500Z" fill="#3834a7" stroke="#3834a7"></path><path d="M826 500L848 487L778 472Z" fill="#5232b7" stroke="#5232b7"></path><path d="M928 156L901 168L960 172Z" fill="#6d2bc6" stroke="#6d2bc6"></path><path d="M916 410L892 335L852 393Z" fill="#1e3396" stroke="#1e3396"></path><path d="M892 335L912 324L902 263Z" fill="#6d2bc6" stroke="#6d2bc6"></path><path d="M952 230L901 168L889 236Z" fill="#1e3396" stroke="#1e3396"></path><path d="M330 0L254 14L329 78Z" fill="#003183" stroke="#003183"></path><path d="M230 73L169 72L185 140Z" fill="#001930" stroke="#001930"></path><path d="M330 0L261 0L254 14Z" fill="#001930" stroke="#001930"></path><path d="M254 14L232 7L230 73Z" fill="#00101c" stroke="#00101c"></path><path d="M928 156L894 108L892 147Z" fill="#00101c" stroke="#00101c"></path><path d="M892 147L894 108L851 97Z" fill="#6d2bc6" stroke="#6d2bc6"></path><path d="M837 46L897 0L818 25Z" fill="#8a1cd2" stroke="#8a1cd2"></path><path d="M168 346L178 439L213 385Z" fill="#6d2bc6" stroke="#6d2bc6"></path><path d="M260 490L230 540L298 540Z" fill="#8a1cd2" stroke="#8a1cd2"></path><path d="M261 0L248 0L254 14Z" fill="#00275a" stroke="#00275a"></path><path d="M894 108L874 65L851 97Z" fill="#003183" stroke="#003183"></path><path d="M248 0L232 7L254 14Z" fill="#1e3396" stroke="#1e3396"></path><path d="M913 426L852 393L836 412Z" fill="#8a1cd2" stroke="#8a1cd2"></path><path d="M159 462L177 458L178 439Z" fill="#002145" stroke="#002145"></path><path d="M178 439L177 458L260 490Z" fill="#003183" stroke="#003183"></path><path d="M225 540L230 540L204 529Z" fill="#002d6f" stroke="#002d6f"></path><path d="M848 487L913 426L836 412Z" fill="#003183" stroke="#003183"></path><path d="M928 475L913 426L848 487Z" fill="#002d6f" stroke="#002d6f"></path><path d="M901 168L928 156L892 147Z" fill="#002d6f" stroke="#002d6f"></path><path d="M894 108L915 51L874 65Z" fill="#00101c" stroke="#00101c"></path><path d="M952 230L889 236L902 263Z" fill="#6d2bc6" stroke="#6d2bc6"></path><path d="M952 230L902 263L960 292Z" fill="#002d6f" stroke="#002d6f"></path><path d="M204 529L230 540L260 490Z" fill="#00275a" stroke="#00275a"></path><path d="M110 164L133 174L185 140Z" fill="#002d6f" stroke="#002d6f"></path><path d="M185 140L133 174L193 151Z" fill="#3834a7" stroke="#3834a7"></path><path d="M167 326L123 343L168 338Z" fill="#001930" stroke="#001930"></path><path d="M168 346L107 413L178 439Z" fill="#6d2bc6" stroke="#6d2bc6"></path><path d="M120 204L123 228L197 247Z" fill="#001930" stroke="#001930"></path><path d="M115 258L167 326L198 288Z" fill="#3834a7" stroke="#3834a7"></path><path d="M198 6L169 72L230 73Z" fill="#3834a7" stroke="#3834a7"></path><path d="M960 292L912 324L960 296Z" fill="#1e3396" stroke="#1e3396"></path><path d="M960 292L902 263L912 324Z" fill="#002d6f" stroke="#002d6f"></path><path d="M122 320L123 343L167 326Z" fill="#00275a" stroke="#00275a"></path><path d="M164 520L204 529L177 458Z" fill="#00101c" stroke="#00101c"></path><path d="M177 458L204 529L260 490Z" fill="#3834a7" stroke="#3834a7"></path><path d="M76 249L115 258L123 228Z" fill="#00101c" stroke="#00101c"></path><path d="M123 228L115 258L197 247Z" fill="#1e3396" stroke="#1e3396"></path><path d="M122 320L111 338L123 343Z" fill="#1e3396" stroke="#1e3396"></path><path d="M113 214L120 204L110 164Z" fill="#001930" stroke="#001930"></path><path d="M133 174L120 204L197 247Z" fill="#6d2bc6" stroke="#6d2bc6"></path><path d="M107 413L159 462L178 439Z" fill="#8a1cd2" stroke="#8a1cd2"></path><path d="M960 296L912 324L960 392Z" fill="#8a1cd2" stroke="#8a1cd2"></path><path d="M960 392L912 324L916 410Z" fill="#5232b7" stroke="#5232b7"></path><path d="M110 164L120 204L133 174Z" fill="#5232b7" stroke="#5232b7"></path><path d="M120 204L113 214L123 228Z" fill="#3834a7" stroke="#3834a7"></path><path d="M960 292L960 218L952 230Z" fill="#5232b7" stroke="#5232b7"></path><path d="M952 230L960 218L901 168Z" fill="#002d6f" stroke="#002d6f"></path><path d="M232 7L198 6L230 73Z" fill="#001930" stroke="#001930"></path><path d="M248 0L198 6L232 7Z" fill="#001930" stroke="#001930"></path><path d="M85 320L111 338L122 320Z" fill="#003183" stroke="#003183"></path><path d="M123 343L107 413L168 346Z" fill="#00275a" stroke="#00275a"></path><path d="M85 320L122 320L115 258Z" fill="#6d2bc6" stroke="#6d2bc6"></path><path d="M960 218L960 172L901 168Z" fill="#002145" stroke="#002145"></path><path d="M960 69L915 51L894 108Z" fill="#002145" stroke="#002145"></path><path d="M960 122L894 108L928 156Z" fill="#002145" stroke="#002145"></path><path d="M874 65L897 0L837 46Z" fill="#5232b7" stroke="#5232b7"></path><path d="M169 72L110 164L185 140Z" fill="#00101c" stroke="#00101c"></path><path d="M76 249L85 320L115 258Z" fill="#8a1cd2" stroke="#8a1cd2"></path><path d="M82 152L110 164L101 65Z" fill="#1e3396" stroke="#1e3396"></path><path d="M801 540L885 540L826 500Z" fill="#00101c" stroke="#00101c"></path><path d="M960 416L960 392L916 410Z" fill="#003183" stroke="#003183"></path><path d="M960 69L916 49L915 51Z" fill="#002145" stroke="#002145"></path><path d="M915 51L916 49L874 65Z" fill="#00275a" stroke="#00275a"></path><path d="M960 416L916 410L913 426Z" fill="#00101c" stroke="#00101c"></path><path d="M894 540L928 475L848 487Z" fill="#00275a" stroke="#00275a"></path><path d="M164 520L177 458L159 462Z" fill="#3834a7" stroke="#3834a7"></path><path d="M164 520L185 540L204 529Z" fill="#001930" stroke="#001930"></path><path d="M204 529L185 540L225 540Z" fill="#002d6f" stroke="#002d6f"></path><path d="M960 172L960 142L928 156Z" fill="#003183" stroke="#003183"></path><path d="M885 540L894 540L848 487Z" fill="#1e3396" stroke="#1e3396"></path><path d="M90 492L164 520L159 462Z" fill="#00101c" stroke="#00101c"></path><path d="M960 430L913 426L928 475Z" fill="#001930" stroke="#001930"></path><path d="M960 430L960 416L913 426Z" fill="#00275a" stroke="#00275a"></path><path d="M248 0L180 0L198 6Z" fill="#00101c" stroke="#00101c"></path><path d="M198 6L159 12L169 72Z" fill="#8a1cd2" stroke="#8a1cd2"></path><path d="M960 142L960 122L928 156Z" fill="#3834a7" stroke="#3834a7"></path><path d="M937 0L897 0L916 49Z" fill="#6d2bc6" stroke="#6d2bc6"></path><path d="M916 49L897 0L874 65Z" fill="#003183" stroke="#003183"></path><path d="M111 338L107 413L123 343Z" fill="#5232b7" stroke="#5232b7"></path><path d="M69 342L107 413L111 338Z" fill="#6d2bc6" stroke="#6d2bc6"></path><path d="M960 474L960 430L928 475Z" fill="#1e3396" stroke="#1e3396"></path><path d="M76 249L123 228L113 214Z" fill="#5232b7" stroke="#5232b7"></path><path d="M180 0L159 12L198 6Z" fill="#00275a" stroke="#00275a"></path><path d="M172 0L159 12L180 0Z" fill="#1e3396" stroke="#1e3396"></path><path d="M82 152L113 214L110 164Z" fill="#001930" stroke="#001930"></path><path d="M34 165L76 249L113 214Z" fill="#5232b7" stroke="#5232b7"></path><path d="M101 65L110 164L169 72Z" fill="#002145" stroke="#002145"></path><path d="M960 122L960 69L894 108Z" fill="#00275a" stroke="#00275a"></path><path d="M960 540L960 474L928 475Z" fill="#00101c" stroke="#00101c"></path><path d="M0 314L69 342L85 320Z" fill="#5232b7" stroke="#5232b7"></path><path d="M85 320L69 342L111 338Z" fill="#8a1cd2" stroke="#8a1cd2"></path><path d="M107 413L90 492L159 462Z" fill="#8a1cd2" stroke="#8a1cd2"></path><path d="M10 254L85 320L76 249Z" fill="#3834a7" stroke="#3834a7"></path><path d="M69 342L80 423L107 413Z" fill="#6d2bc6" stroke="#6d2bc6"></path><path d="M172 0L124 24L159 12Z" fill="#8a1cd2" stroke="#8a1cd2"></path><path d="M159 12L124 24L169 72Z" fill="#6d2bc6" stroke="#6d2bc6"></path><path d="M124 24L101 65L169 72Z" fill="#001930" stroke="#001930"></path><path d="M960 0L937 0L916 49Z" fill="#6d2bc6" stroke="#6d2bc6"></path><path d="M69 342L69 427L80 423Z" fill="#8a1cd2" stroke="#8a1cd2"></path><path d="M80 423L71 435L107 413Z" fill="#002d6f" stroke="#002d6f"></path><path d="M69 427L71 435L80 423Z" fill="#001930" stroke="#001930"></path><path d="M164 520L83 540L185 540Z" fill="#002145" stroke="#002145"></path><path d="M41 65L64 123L101 65Z" fill="#6d2bc6" stroke="#6d2bc6"></path><path d="M101 65L64 123L82 152Z" fill="#1e3396" stroke="#1e3396"></path><path d="M82 152L34 165L113 214Z" fill="#3834a7" stroke="#3834a7"></path><path d="M69 342L7 410L69 427Z" fill="#3834a7" stroke="#3834a7"></path><path d="M71 435L90 492L107 413Z" fill="#00275a" stroke="#00275a"></path><path d="M894 540L960 540L928 475Z" fill="#003183" stroke="#003183"></path><path d="M960 69L960 0L916 49Z" fill="#001930" stroke="#001930"></path><path d="M0 131L34 165L64 123Z" fill="#5232b7" stroke="#5232b7"></path><path d="M64 123L34 165L82 152Z" fill="#003183" stroke="#003183"></path><path d="M34 165L15 236L76 249Z" fill="#003183" stroke="#003183"></path><path d="M54 540L90 492L40 533Z" fill="#1e3396" stroke="#1e3396"></path><path d="M0 248L10 254L15 236Z" fill="#5232b7" stroke="#5232b7"></path><path d="M15 236L10 254L76 249Z" fill="#001930" stroke="#001930"></path><path d="M54 540L83 540L90 492Z" fill="#00275a" stroke="#00275a"></path><path d="M0 441L71 435L69 427Z" fill="#6d2bc6" stroke="#6d2bc6"></path><path d="M90 492L83 540L164 520Z" fill="#5232b7" stroke="#5232b7"></path><path d="M69 0L101 65L124 24Z" fill="#6d2bc6" stroke="#6d2bc6"></path><path d="M69 0L41 65L101 65Z" fill="#002d6f" stroke="#002d6f"></path><path d="M0 229L0 248L15 236Z" fill="#001930" stroke="#001930"></path><path d="M0 229L15 236L0 192Z" fill="#00275a" stroke="#00275a"></path><path d="M10 254L0 314L85 320Z" fill="#001930" stroke="#001930"></path><path d="M0 192L15 236L34 165Z" fill="#003183" stroke="#003183"></path><path d="M0 248L0 314L10 254Z" fill="#001930" stroke="#001930"></path><path d="M0 314L0 332L69 342Z" fill="#8a1cd2" stroke="#8a1cd2"></path><path d="M172 0L69 0L124 24Z" fill="#002d6f" stroke="#002d6f"></path><path d="M0 131L0 192L34 165Z" fill="#1e3396" stroke="#1e3396"></path><path d="M0 332L7 410L69 342Z" fill="#00101c" stroke="#00101c"></path><path d="M40 533L90 492L0 480Z" fill="#002145" stroke="#002145"></path><path d="M0 332L0 409L7 410Z" fill="#1e3396" stroke="#1e3396"></path><path d="M0 480L90 492L71 435Z" fill="#1e3396" stroke="#1e3396"></path><path d="M0 108L0 131L64 123Z" fill="#5232b7" stroke="#5232b7"></path><path d="M0 108L64 123L41 65Z" fill="#00275a" stroke="#00275a"></path><path d="M0 17L0 108L41 65Z" fill="#8a1cd2" stroke="#8a1cd2"></path><path d="M0 441L69 427L7 410Z" fill="#001930" stroke="#001930"></path><path d="M0 409L0 441L7 410Z" fill="#00275a" stroke="#00275a"></path><path d="M69 0L28 23L41 65Z" fill="#001930" stroke="#001930"></path><path d="M0 441L0 480L71 435Z" fill="#002d6f" stroke="#002d6f"></path><path d="M69 0L24 0L28 23Z" fill="#002d6f" stroke="#002d6f"></path><path d="M28 23L0 17L41 65Z" fill="#1e3396" stroke="#1e3396"></path><path d="M24 0L0 17L28 23Z" fill="#002145" stroke="#002145"></path><path d="M0 480L0 540L40 533Z" fill="#00275a" stroke="#00275a"></path><path d="M40 533L0 540L54 540Z" fill="#5232b7" stroke="#5232b7"></path><path d="M24 0L0 0L0 17Z" fill="#00275a" stroke="#00275a"></path></g></svg>