<svg width="477" height="338" viewBox="0 0 477 338" fill="none" xmlns="http://www.w3.org/2000/svg">
<g clip-path="url(#clip0_1208_4516)">
<path d="M28.1931 285.127L13.5692 272.735C15.2416 262.8 19.3106 253.424 25.4228 245.422C25.9143 263.325 44.2409 275.315 50.5474 292.075C52.4744 297.317 53.1985 302.927 52.6661 308.487C52.1338 314.048 50.3586 319.417 47.4722 324.198L46.001 337.723C38.0145 333.556 31.0253 327.704 25.5148 320.572C20.0043 313.439 16.1035 305.195 14.0812 296.408C12.9955 291.467 12.5355 286.409 12.712 281.352C20.1996 283.634 28.1931 285.127 28.1931 285.127Z" fill="#28293D"/>
<path d="M438.123 308.832L448.336 292.602C458.393 292.872 468.233 295.598 477 300.541C459.365 303.528 450.067 323.374 434.374 331.967C429.459 334.61 424.013 336.111 418.44 336.36C412.867 336.608 407.309 335.598 402.179 333.404L388.599 333.834C391.604 325.333 396.415 317.586 402.699 311.126C408.982 304.666 416.59 299.647 424.997 296.415C429.732 294.649 434.67 293.486 439.694 292.955C438.484 300.698 438.123 308.832 438.123 308.832Z" fill="#28293D"/>
<path d="M114.874 255.92L58.2495 252.593L66.0113 197.633L115.909 251.483L114.874 255.92Z" fill="#28293D"/>
<path d="M107.666 311.99L50.0068 308.104L57.6949 258.145L107.926 308.113L107.666 311.99Z" fill="#28293D"/>
<path d="M429.771 80.1494V29.3825C429.771 25.5239 429.012 21.7031 427.537 18.1383C426.063 14.5734 423.901 11.3343 421.177 8.60593C418.452 5.87752 415.217 3.71322 411.657 2.23661C408.097 0.760002 404.281 0 400.428 0H293.014C289.161 -7.29038e-07 285.345 0.760002 281.785 2.23661C278.225 3.71322 274.99 5.87751 272.265 8.60593C269.541 11.3343 267.379 14.5735 265.905 18.1383C264.43 21.7031 263.671 25.5239 263.671 29.3825V307.894C263.671 315.686 266.762 323.16 272.265 328.67C277.768 334.181 285.232 337.276 293.014 337.276H400.428C408.21 337.276 415.674 334.181 421.177 328.67C426.68 323.16 429.771 315.686 429.771 307.894V116.286C430.262 116.286 430.733 116.091 431.08 115.743C431.427 115.396 431.622 114.924 431.622 114.433V82.0026C431.622 81.5111 431.427 81.0397 431.08 80.6922C430.733 80.3447 430.262 80.1494 429.771 80.1494V80.1494Z" fill="#3F3D56"/>
<path d="M423.526 29.5847V307.694C423.527 313.47 421.251 319.014 417.193 323.12C413.136 327.226 407.624 329.564 401.855 329.624C401.775 329.632 401.695 329.635 401.615 329.634H293.679C287.868 329.633 282.295 327.322 278.186 323.207C274.077 319.093 271.769 313.512 271.768 307.694V29.5847C271.769 23.766 274.077 18.1857 278.186 14.0713C282.295 9.9568 287.868 7.64508 293.679 7.64454H306.778C306.134 9.22797 305.888 10.9456 306.063 12.6463C306.238 14.347 306.827 15.9786 307.78 17.3977C308.732 18.8167 310.018 19.9796 311.524 20.7841C313.031 21.5886 314.712 22.0099 316.419 22.0112H377.956C379.662 22.0065 381.34 21.5827 382.845 20.777C384.349 19.9714 385.633 18.8084 386.583 17.3902C387.534 15.9719 388.123 14.3418 388.298 12.6426C388.473 10.9435 388.229 9.22726 387.587 7.64453H401.615C407.426 7.64506 412.999 9.95678 417.108 14.0712C421.217 18.1857 423.526 23.766 423.526 29.5847Z" fill="#28293D"/>
<path d="M399.762 322.846C399.762 325.727 399.672 328.584 399.491 331.418C399.411 331.427 399.332 331.431 399.252 331.429H291.319C286.435 331.428 281.692 329.795 277.841 326.788C273.99 323.781 271.252 319.572 270.062 314.83C269.854 314.002 269.696 313.162 269.591 312.315C269.468 311.378 269.407 310.434 269.408 309.489V185.551C277.713 185.962 285.964 187.129 294.058 189.037C294.85 189.22 295.638 189.415 296.419 189.615C296.469 189.626 296.519 189.642 296.569 189.653C297.362 189.853 298.149 190.064 298.931 190.281C315.617 194.87 331.279 202.592 345.086 213.036C345.879 213.63 346.666 214.241 347.448 214.857L347.597 214.974C348.906 216.007 350.194 217.065 351.462 218.149C351.744 218.388 352.027 218.632 352.304 218.882C352.986 219.471 353.668 220.07 354.333 220.675C369.056 233.945 380.744 250.242 388.596 268.452C388.857 269.046 389.106 269.645 389.356 270.245C389.456 270.489 389.555 270.734 389.655 270.978C389.749 271.2 389.838 271.422 389.927 271.644C396.445 287.925 399.784 305.306 399.762 322.846V322.846Z" fill="#3F3D56"/>
<path d="M264.264 108.549C263.602 108.548 262.967 108.285 262.499 107.816C262.031 107.347 261.767 106.711 261.767 106.048V89.0402C261.767 88.3769 262.03 87.7407 262.498 87.2716C262.967 86.8026 263.602 86.5391 264.264 86.5391C264.927 86.5391 265.562 86.8026 266.031 87.2716C266.499 87.7407 266.762 88.3769 266.762 89.0402V106.048C266.762 106.711 266.498 107.347 266.03 107.816C265.562 108.285 264.927 108.548 264.264 108.549V108.549Z" fill="#3F3D56"/>
<path d="M263.765 75.5337C263.103 75.5329 262.468 75.2691 262 74.8002C261.531 74.3313 261.268 73.6956 261.267 73.0325V56.0246C261.267 55.3613 261.53 54.7251 261.999 54.256C262.467 53.787 263.102 53.5234 263.765 53.5234C264.427 53.5234 265.063 53.787 265.531 54.256C266 54.7251 266.263 55.3613 266.263 56.0246V73.0325C266.262 73.6956 265.999 74.3313 265.53 74.8002C265.062 75.2691 264.427 75.5329 263.765 75.5337V75.5337Z" fill="#3F3D56"/>
<path d="M330.207 10.5051C330.208 9.84196 330.471 9.20623 330.939 8.73734C331.408 8.26845 332.043 8.00469 332.705 8.00391H349.69C350.018 8.00342 350.344 8.06775 350.647 8.19323C350.951 8.3187 351.226 8.50286 351.459 8.73517C351.691 8.96747 351.875 9.24336 352.001 9.54706C352.127 9.85076 352.192 10.1763 352.192 10.5051C352.192 10.8338 352.127 11.1594 352.001 11.4631C351.875 11.7668 351.691 12.0427 351.459 12.275C351.226 12.5073 350.951 12.6914 350.647 12.8169C350.344 12.9424 350.018 13.0067 349.69 13.0062H332.705C332.043 13.0055 331.408 12.7417 330.939 12.2728C330.471 11.8039 330.208 11.1682 330.207 10.5051V10.5051Z" fill="#28293D"/>
<path d="M264.264 137.565C263.602 137.564 262.967 137.3 262.499 136.831C262.031 136.363 261.767 135.727 261.767 135.064V118.056C261.767 117.392 262.03 116.756 262.498 116.287C262.967 115.818 263.602 115.555 264.264 115.555C264.927 115.555 265.562 115.818 266.031 116.287C266.499 116.756 266.762 117.392 266.762 118.056V135.064C266.762 135.727 266.498 136.363 266.03 136.831C265.562 137.3 264.927 137.564 264.264 137.565V137.565Z" fill="#3F3D56"/>
<path d="M359.182 13.0062C360.561 13.0062 361.68 11.8864 361.68 10.5051C361.68 9.12371 360.561 8.00391 359.182 8.00391C357.802 8.00391 356.684 9.12371 356.684 10.5051C356.684 11.8864 357.802 13.0062 359.182 13.0062Z" fill="#28293D"/>
<path opacity="0.2" d="M349.959 310.52C349.958 305.327 350.979 300.185 352.964 295.387C354.948 290.589 357.857 286.229 361.524 282.557C365.191 278.885 369.545 275.972 374.337 273.985C379.128 271.998 384.264 270.976 389.45 270.977H389.655C389.555 270.732 389.456 270.488 389.356 270.244C389.106 269.644 388.857 269.045 388.596 268.451H349.959V218.881H352.304C352.027 218.631 351.744 218.387 351.462 218.148C350.192 217.066 348.904 216.007 347.597 214.973L347.448 214.856V216.355H298.931V190.279C298.149 190.063 297.362 189.852 296.569 189.652C296.519 189.641 296.469 189.624 296.419 189.613V216.355H271.77V218.881H296.419V268.451H271.77V270.977H296.419V310.52H271.953C272.058 311.367 272.216 312.207 272.424 313.035H296.419V329.634H298.931V313.035H347.448V329.634H349.959V313.035H392.289V310.52H349.959ZM347.448 310.52H298.931V270.977H347.448V310.52ZM347.448 268.451H298.931V267.462C298.931 254.578 304.042 242.221 313.141 233.11C322.24 224 334.58 218.881 347.448 218.881V268.451Z" fill="black"/>
<path d="M132.313 129.234L105.385 336.651L105.213 337.972H104.093L104.265 336.651L131.215 129.09L132.313 129.234Z" fill="#555770"/>
<path d="M76.2505 129.495L46.556 336.673L46.3675 337.995H45.2476L45.4361 336.673L75.1527 129.34L76.2505 129.495Z" fill="#555770"/>
<path d="M174.182 337.943L173.029 337.948L172.674 336.627L115.231 122.976L116.301 122.688L173.822 336.627L174.182 337.943Z" fill="#3F3D56"/>
<path d="M171.749 122.682L170.683 122.984L231.217 336.803L232.283 336.5L171.749 122.682Z" fill="#3F3D56"/>
<path d="M220.729 297.574L165.838 308.945L166.063 310.033L220.953 298.662L220.729 297.574Z" fill="#3F3D56"/>
<path d="M211.212 264.219L156.321 275.59L156.546 276.677L211.437 265.306L211.212 264.219Z" fill="#3F3D56"/>
<path d="M201.702 230.867L147.194 241.43L147.405 242.519L201.913 231.956L201.702 230.867Z" fill="#3F3D56"/>
<path d="M192.184 197.516L138.864 208.066L139.079 209.156L192.399 198.605L192.184 197.516Z" fill="#3F3D56"/>
<path d="M75.3131 129.457C74.4792 124.003 75.8434 118.44 79.1055 113.993C82.3676 109.546 87.2603 106.578 92.7074 105.744C98.1545 104.909 103.71 106.275 108.151 109.541C112.592 112.807 115.556 117.707 116.39 123.161L115.294 123.329C114.904 120.772 114.015 118.316 112.677 116.102C111.34 113.889 109.579 111.961 107.497 110.429C105.415 108.897 103.052 107.79 100.543 107.173C98.0338 106.556 95.4278 106.44 92.8738 106.831C90.3197 107.222 87.8677 108.114 85.6579 109.455C83.448 110.795 81.5236 112.559 79.9946 114.644C78.4656 116.73 77.362 119.097 76.7467 121.61C76.1314 124.122 76.0167 126.732 76.4089 129.289L75.3131 129.457Z" fill="#3F3D56"/>
<path d="M130.844 129.706C130.395 127.01 130.48 124.253 131.096 121.59C131.711 118.928 132.844 116.413 134.431 114.189C136.017 111.966 138.025 110.076 140.34 108.63C142.656 107.184 145.233 106.208 147.925 105.759C150.617 105.31 153.371 105.397 156.03 106.014C158.689 106.631 161.2 107.767 163.42 109.356C165.64 110.945 167.526 112.956 168.97 115.275C170.414 117.594 171.387 120.175 171.835 122.871L170.741 123.053C169.882 117.903 167.015 113.305 162.771 110.27C158.527 107.236 153.254 106.013 148.11 106.871C142.966 107.728 138.373 110.596 135.34 114.844C132.307 119.092 131.083 124.372 131.938 129.524L130.844 129.706Z" fill="#3F3D56"/>
<path d="M188.135 175.011L177.479 200.967L212.196 200.715L208.666 174.953L188.135 175.011Z" fill="#FFB6B6"/>
<path d="M196.612 294.169L201.762 294.921L207.108 275.391L199.509 274.281L196.612 294.169Z" fill="#FFB6B6"/>
<path d="M195.706 291.438L203.917 292.14L203.408 295.632L210.367 302.115C210.711 302.435 210.943 302.857 211.031 303.318C211.118 303.78 211.056 304.258 210.853 304.682C210.65 305.106 210.317 305.454 209.903 305.675C209.488 305.896 209.014 305.978 208.55 305.91L198.859 304.495L197.692 300.796L196.536 304.155L192.882 303.622L195.706 291.438Z" fill="#2F2E41"/>
<path d="M137.103 279.741L141.211 282.94L155.487 268.595L149.424 263.875L137.103 279.741Z" fill="#FFB6B6"/>
<path d="M137.66 276.922L144.455 281.59L142.291 284.376L145.149 293.453C145.291 293.902 145.285 294.383 145.133 294.828C144.982 295.273 144.692 295.658 144.307 295.926C143.921 296.195 143.46 296.333 142.991 296.32C142.522 296.308 142.069 296.145 141.698 295.857L133.967 289.836L134.775 286.043L132.114 288.394L129.199 286.124L137.66 276.922Z" fill="#2F2E41"/>
<path d="M179.44 194.808L176.021 199.343L166.92 238.992L146.234 266.967L153.188 273.653L179.572 248.022L192.52 220.637L199.071 245.931L197.408 279.796L208.496 279.241C211.501 239.941 216.202 199.505 210.665 188.148C207.015 191.336 202.755 193.745 198.143 195.228C193.532 196.71 188.667 197.235 183.846 196.771L179.44 194.808Z" fill="#2F2E41"/>
<path d="M197.741 133.036L206.489 142.614C208.409 144.716 209.626 147.366 209.97 150.193V150.193C210.127 151.477 210.101 152.777 209.893 154.054L208.007 167.888L211.333 188.984C211.333 188.984 206.593 191.879 197.473 197.866C193.751 200.31 176.384 200.27 176.405 199.532C176.504 196.111 179.56 186.892 180.286 175.66C181.183 161.797 180.007 145.252 183.058 137.354C186.783 127.714 197.741 133.036 197.741 133.036Z" fill="#E7B2FF"/>
<path d="M167.722 194.417C168.104 193.861 168.359 193.228 168.47 192.562C168.581 191.897 168.545 191.215 168.365 190.565C168.184 189.915 167.863 189.313 167.425 188.801C166.987 188.288 166.441 187.878 165.828 187.6L166.17 177.059L159.824 175.289L159.55 190.181C159.151 191.244 159.155 192.417 159.562 193.477C159.968 194.537 160.75 195.411 161.757 195.934C162.764 196.456 163.928 196.59 165.027 196.31C166.127 196.031 167.086 195.357 167.722 194.417V194.417Z" fill="#FFB6B6"/>
<path d="M159.258 151.868C159.445 151.377 159.732 150.93 160.101 150.556C160.469 150.182 160.912 149.888 161.4 149.694C164.777 148.273 179.379 136.325 179.917 136.549L184.553 134.258C184.724 134.26 189.291 134.368 191.531 136.912C191.997 137.449 192.341 138.08 192.54 138.763C192.739 139.446 192.788 140.164 192.683 140.867C192.027 146.925 171.327 160.532 169.133 160.44L166.809 177.64L167.713 184.211L159.247 184.452L156.639 174.777C156.264 174.071 155.791 160.707 159.258 151.868Z" fill="#E7B2FF"/>
<path d="M193.197 142.682C193.882 137.979 191.245 133.701 187.306 133.125C183.367 132.55 179.618 135.896 178.933 140.598C178.248 145.301 180.886 149.58 184.825 150.155C188.764 150.73 192.512 147.385 193.197 142.682Z" fill="#E7B2FF"/>
<path d="M129.562 173.425L129.348 172.336L180.841 160.672V161.782L129.562 173.425Z" fill="#3F3D56"/>
<path d="M357.522 94.9688H337.773C333.513 94.9688 330.059 98.4268 330.059 102.693V102.693C330.059 106.958 333.513 110.417 337.773 110.417H357.522C361.782 110.417 365.235 106.958 365.235 102.693C365.235 98.4268 361.782 94.9688 357.522 94.9688Z" fill="#555770"/>
<path d="M394.161 125.863H301.133C296.873 125.863 293.419 129.321 293.419 133.587V133.587C293.419 137.853 296.873 141.311 301.133 141.311H394.161C398.421 141.311 401.875 137.853 401.875 133.587C401.875 129.321 398.421 125.863 394.161 125.863Z" fill="#555770"/>
<path d="M354.243 148.988H261.215C256.955 148.988 253.501 152.446 253.501 156.712V156.712C253.501 160.978 256.955 164.436 261.215 164.436H354.243C358.503 164.436 361.957 160.978 361.957 156.712C361.957 152.446 358.503 148.988 354.243 148.988Z" fill="#E7B2FF"/>
<path d="M206.998 123.472C205.343 125.673 202.989 127.244 200.322 127.927C197.656 128.61 194.838 128.363 192.33 127.227C189.823 126.091 187.777 124.134 186.529 121.678C185.281 119.222 184.905 116.414 185.464 113.716C186.022 111.018 187.482 108.591 189.602 106.834C191.723 105.078 194.377 104.096 197.129 104.052C199.88 104.008 202.565 104.904 204.74 106.591C206.915 108.279 208.452 110.658 209.096 113.337C209.131 113.483 209.161 113.627 209.189 113.777C209.53 115.456 209.51 117.189 209.133 118.86C208.755 120.531 208.027 122.103 206.998 123.472V123.472Z" fill="#FFB6B6"/>
<path d="M210.149 113.919C209.844 112.399 209.959 113.184 209.648 111.669C209.712 112.403 209.552 113.138 209.189 113.779L194.92 111.694L196.13 103.388C200.552 102.34 204.845 101.525 206.866 104.957C209.066 105.278 211.048 106.461 212.377 108.246C213.706 110.031 214.272 112.272 213.951 114.474L210.149 113.919Z" fill="#2F2E41"/>
<path d="M201.728 136.268C201.739 136.113 201.746 135.951 201.746 135.794C201.719 134.638 201.569 133.487 201.299 132.363C201.057 131.143 200.81 129.918 200.561 128.698C200.792 130.88 200.304 133.079 199.173 134.958C197.038 132.728 198.45 129.499 195.301 129.039C187.73 127.933 181.569 119.803 182.675 112.217C183.779 104.636 187.853 99.4409 195.424 100.547C203 101.653 208.639 106.023 207.682 113.625C198.036 114.46 203.601 135.756 201.728 136.268Z" fill="#2F2E41"/>
<path d="M185.07 107.467C187.863 107.467 190.127 105.2 190.127 102.403C190.127 99.6068 187.863 97.3398 185.07 97.3398C182.277 97.3398 180.013 99.6068 180.013 102.403C180.013 105.2 182.277 107.467 185.07 107.467Z" fill="#2F2E41"/>
<path d="M191.068 98.2222C190.597 97.2004 189.881 96.3108 188.984 95.6322C188.087 94.9537 187.037 94.5071 185.926 94.332C186.709 94.6862 187.392 95.2276 187.916 95.9086C188.44 96.5895 188.789 97.3891 188.931 98.2368C189.074 99.0845 189.006 99.9543 188.734 100.77C188.462 101.585 187.994 102.321 187.371 102.912L188.394 102.032C188.672 102.27 189.02 102.412 189.385 102.439C189.75 102.465 190.114 102.373 190.423 102.178C190.727 101.973 190.98 101.702 191.164 101.385C191.348 101.068 191.458 100.714 191.486 100.349C191.534 99.6155 191.39 98.8824 191.068 98.2222V98.2222Z" fill="#2F2E41"/>
<path d="M255.438 151.779C254.837 151.474 254.177 151.305 253.503 151.284C252.83 151.262 252.16 151.389 251.541 151.654C250.921 151.92 250.368 152.318 249.919 152.822C249.47 153.325 249.137 153.92 248.943 154.566L238.465 155.629L237.557 162.163L252.333 160.454C253.438 160.708 254.598 160.548 255.594 160.003C256.589 159.458 257.35 158.567 257.733 157.498C258.116 156.428 258.094 155.256 257.671 154.202C257.248 153.148 256.454 152.286 255.438 151.779Z" fill="#FFB6B6"/>
<path d="M214.451 165.839C213.94 165.718 213.459 165.493 213.04 165.177C212.62 164.861 212.271 164.461 212.014 164.002C210.158 160.84 196.389 147.937 196.539 147.374L193.655 143.078C193.634 142.908 193.133 138.361 195.353 135.8C195.823 135.266 196.402 134.84 197.051 134.552C197.701 134.264 198.405 134.12 199.115 134.13C205.198 133.975 220.492 153.253 220.693 155.443L238.955 154.916L245.338 153.145L246.703 161.514L237.474 165.39C236.825 165.856 223.66 168.103 214.451 165.839Z" fill="#E7B2FF"/>
</g>
<defs>
<clipPath id="clip0_1208_4516">
<rect width="477" height="338" fill="white"/>
</clipPath>
</defs>
</svg>
