<?xml version="1.0" encoding="utf-8"?>
<!-- Generator: Adobe Illustrator 25.0.0, SVG Export Plug-In . SVG Version: 6.00 Build 0)  -->
<svg version="1.1" id="Camada_1" xmlns="http://www.w3.org/2000/svg" xmlns:xlink="http://www.w3.org/1999/xlink" x="0px" y="0px"
	 viewBox="0 0 50 50" style="enable-background:new 0 0 50 50;" xml:space="preserve">
<style type="text/css">
	.st0{fill:#211915;}
</style>
<path class="st0" d="M18.8,4C18.3,4.1,18,4.5,18,5v21l-2.8,1.1l-9.3,3.3c0,0,0,0,0,0L4.2,31c0,0,0,0-0.1,0C1.6,32.2,0,33.8,0,35.7
	c0,1.5,0.4,2.8,1.3,3.8s2.1,1.7,3.7,2c3,0.6,7.1,0,12.3-1.8c0.2-0.1,0.4-0.1,0.7-0.2v2.1c0,0.4,0.3,0.8,0.7,1l7.7,2.3
	c0,0,0.1,0,0.1,0c0.1,0,0.2,0.1,0.3,0.1c0.1,0,0.2,0,0.3,0c0,0,0,0,0,0c0.1,0,0.1,0,0.2-0.1c0,0,0.1,0,0.1,0c0,0,0,0,0,0l6.1-2.1
	l10.8-3.8c0,0,0.1,0,0.1,0l1.2-0.6c0,0,0,0,0.1,0c1.3-0.5,2.3-1.1,3.1-1.7c0.7-0.7,1.2-1.6,1.1-2.6c-0.1-1-0.7-1.8-1.5-2.4
	s-1.9-1.1-3.2-1.5c-3-1-6-1.4-8.8-1.2c-2.6,0.1-5.2,0.5-7.9,1.3l-0.1,0L28,30.4V13.5c0.6,0.3,1,0.8,1,1.5v11.1
	c0,0.3,0.2,0.7,0.4,0.8c0,0,0.5,0.3,1.2,0.6S32.5,28,34,28c2.7,0,4.4-1.6,5.2-3.5s0.8-3.8,0.8-5.1c0-6.1-3.7-10.2-8.7-11.8L19.3,4
	C19.2,4,19,4,18.8,4C18.9,4,18.8,4,18.8,4z M20,6.3l10.7,3.2c4.4,1.3,7.3,4.5,7.3,9.8c0,1.2-0.1,3-0.7,4.3S36,26,34,26
	c-1.2,0-2.1-0.2-2.7-0.4c-0.2-0.1-0.2-0.1-0.3-0.1V15c0-1.6-1.1-3-2.5-3.5c0,0,0,0,0,0C27.3,11,26,11.9,26,13.2v18.4
	c0,0.1,0,0.1,0,0.2v4.6c0,0.1,0,0.3,0,0.4v2.4c-0.1,0.2-0.1,0.4,0,0.6v2.8l-6-1.8v-2.5c0.1-0.2,0.1-0.4,0-0.6v-3.2
	c0.1-0.3,0.1-0.6,0-0.8v-2.1c0.1-0.3,0.1-0.6,0-0.9v-4c0-0.1,0-0.2,0-0.3V6.3z M18,28.1v2.5c-0.5,0.2-1.4,0.5-2.9,1
	c-0.9,0.3-1.8,0.7-2.6,0.9c-0.7,0.3-1.4,0.4-1.4,0.5c0,0,0,0-0.1,0c-1.4,0.5-2.4,1.1-2.9,1.7c-0.3,0.3-0.5,0.6-0.6,1.1
	c0,0.4,0.3,0.7,0.5,1l-0.1,0.1c0,0,0.2,0.1,0.3,0.2c0.1,0.1,0.1,0.1,0.2,0.2c0.3,0.2,0.7,0.3,1.2,0.4c1,0.2,2.5,0.1,4.7-0.7
	c0,0,0,0,0,0c1.3-0.4,2.7-1,3.8-1.4v1.7c-0.5,0.2-0.9,0.3-1.3,0.5c-5,1.7-8.9,2.2-11.3,1.7c-1.2-0.2-2-0.7-2.6-1.3S2,36.8,2,35.7
	c0-0.5,0.8-1.9,3-2.9l1.5-0.6h0l9.3-3.3L18,28.1z M36.6,30.9c2.5-0.1,5.3,0.2,8.1,1.1c0,0,0,0,0,0c1.2,0.4,2.1,0.8,2.6,1.2
	s0.7,0.7,0.7,0.9c0,0.4,0,0.5-0.5,0.9S46.3,36,45,36.5c0,0,0,0-0.1,0l-1.2,0.6l-0.1,0L33,40.8l-5,1.8v-2.4c1-0.4,9-3.3,10.8-3.9
	c1.5-0.6,2.5-0.9,3.1-1.3c0.3-0.2,0.6-0.3,0.8-0.6s0.4-0.8,0.3-1.2c0-0.1-0.1-0.2-0.1-0.3c-0.3-0.5-1-0.8-1.8-0.9l0-0.1
	c0,0-0.1,0-0.2,0c-0.1,0-0.2,0-0.4-0.1c-0.3,0-0.7,0-1.2,0c-1.1,0.1-2.9,0.5-5.6,1.4c-3,1-4.7,1.6-5.8,2v-2.7l1.2-0.3c0,0,0,0,0,0
	C31.7,31.4,34.2,31,36.6,30.9z M18,32.8v0.8c-0.8,0.3-2.8,1.1-4.4,1.6c-1.8,0.6-2.8,0.7-3.4,0.6c0.3-0.2,0.7-0.5,1.5-0.8
	c0,0,0,0,0.1,0c0.3-0.1,0.8-0.2,1.5-0.5c0.8-0.3,1.7-0.6,2.6-0.9C16.9,33.1,17.3,33,18,32.8z M39.6,33.8c-0.5,0.2-0.7,0.3-1.4,0.6
	c-1.7,0.6-8.4,3-10.2,3.7v-0.8c0.6-0.2,2.2-0.8,6.4-2.2C37,34.2,38.7,33.9,39.6,33.8z"/>
</svg>
