<svg width="32" height="32" viewBox="0 0 512 512" fill="none" xmlns="http://www.w3.org/2000/svg">
  <rect width="512" height="512" rx="46" fill="#F2F1F4" />
  <path
    d="M355.384 233.902L410.683 178.625C417.772 171.538 417.772 159.942 410.683 152.855L359.122 101.315C352.032 94.2282 340.431 94.2282 333.342 101.315L278.042 156.592C276.367 158.266 275.335 160.586 275.464 163.034V227.459C275.464 232.614 279.461 236.608 284.616 236.608H349.067C351.388 236.608 353.579 235.706 355.384 233.902ZM233.958 156.592L178.658 101.315C171.569 94.2282 159.968 94.2282 152.878 101.315L101.317 152.855C94.2277 159.942 94.2277 171.538 101.317 178.625L156.616 233.902C158.292 235.577 160.612 236.608 163.062 236.479H227.513C232.668 236.479 236.665 232.485 236.665 227.33V162.905C236.665 160.586 235.762 158.395 233.958 156.592ZM156.616 277.968L101.317 333.246C94.2277 340.333 94.2277 351.929 101.317 359.015L152.878 410.556C159.968 417.643 171.569 417.643 178.658 410.556L233.958 355.279C235.633 353.604 236.665 351.285 236.536 348.837V284.411C236.536 279.257 232.539 275.263 227.384 275.263H162.933C160.612 275.263 158.421 276.165 156.616 277.968ZM348.809 275.263H284.359C279.203 275.263 275.206 279.257 275.206 284.411V348.837C275.206 351.156 276.109 353.604 277.784 355.279L333.213 410.685C340.302 417.772 351.903 417.772 358.993 410.685L410.554 359.144C417.643 352.058 417.643 340.461 410.554 333.374L355.255 278.097C353.579 276.165 351.388 275.263 348.809 275.263Z"
    fill="#9540BF" />
</svg>